<svg version="1.1"
  xmlns="http://www.w3.org/2000/svg" width="32" height="32" viewBox="0 0 32 32">
  <title>instagram</title>
  <path d="M21.333 16q0-2.208-1.563-3.771t-3.771-1.563-3.771 1.563-1.563 3.771 1.563 3.771 3.771 1.563 3.771-1.563 1.563-3.771zM24.208 16q0 3.417-2.396 5.813t-5.813 2.396-5.813-2.396-2.396-5.813 2.396-5.813 5.813-2.396 5.813 2.396 2.396 5.813zM26.458 7.458q0 0.792-0.563 1.354t-1.354 0.563-1.354-0.563-0.563-1.354 0.563-1.354 1.354-0.563 1.354 0.563 0.563 1.354zM16 2.875q-0.146 0-1.594-0.010t-2.198 0-2.010 0.063-2.146 0.208-1.49 0.385q-1.042 0.417-1.833 1.208t-1.208 1.833q-0.229 0.604-0.385 1.49t-0.208 2.146-0.063 2.010 0 2.198 0.010 1.594-0.010 1.594 0 2.198 0.063 2.010 0.208 2.146 0.385 1.49q0.417 1.042 1.208 1.833t1.833 1.208q0.604 0.229 1.49 0.385t2.146 0.208 2.010 0.063 2.198 0 1.594-0.010 1.594 0.010 2.198 0 2.010-0.063 2.146-0.208 1.49-0.385q1.042-0.417 1.833-1.208t1.208-1.833q0.229-0.604 0.385-1.49t0.208-2.146 0.063-2.010 0-2.198-0.010-1.594 0.010-1.594 0-2.198-0.063-2.010-0.208-2.146-0.385-1.49q-0.417-1.042-1.208-1.833t-1.833-1.208q-0.604-0.229-1.49-0.385t-2.146-0.208-2.010-0.063-2.198 0-1.594 0.010zM32 16q0 4.771-0.104 6.604-0.208 4.333-2.583 6.708t-6.708 2.583q-1.833 0.104-6.604 0.104t-6.604-0.104q-4.333-0.208-6.708-2.583t-2.583-6.708q-0.104-1.833-0.104-6.604t0.104-6.604q0.208-4.333 2.583-6.708t6.708-2.583q1.833-0.104 6.604-0.104t6.604 0.104q4.333 0.208 6.708 2.583t2.583 6.708q0.104 1.833 0.104 6.604z" fill="#14F195"></path>
</svg>
