<svg xmlns="http://www.w3.org/2000/svg" width="73.808" height="52.651" viewBox="0 0 73.808 52.651">
  <g id="Group_7858" data-name="Group 7858" transform="translate(-31 -19.665)">
    <g id="Group_7857" data-name="Group 7857" transform="translate(-4113 -5158)">
      <path id="Path_14070" data-name="Path 14070" d="M4324.542,4861.278a3,3,0,0,1-3-3v-43.651h-16.253l-6.033,11.294,13.284,13.586a3,3,0,0,1-4.29,4.194l-14.821-15.157a3,3,0,0,1-.5-3.511l7.916-14.82a3,3,0,0,1,2.646-1.586h21.052a3,3,0,0,1,3,3v46.651A3,3,0,0,1,4324.542,4861.278Z" transform="translate(-148.575 369.038)" fill="#14f195"/>
      <path id="Path_14071" data-name="Path 14071" d="M4378.3,4857.909a3,3,0,0,1-3-3v-43.282a3,3,0,0,1,6,0v35.4l18.958-21.312-4.721-6.819a3,3,0,0,1,4.934-3.415l6.063,8.758a3,3,0,0,1-.225,3.7l-25.768,28.967A3,3,0,0,1,4378.3,4857.909Z" transform="translate(-189.257 369.038)" fill="#14f195"/>
    </g>
  </g>
</svg>
