<svg version="1.1"
  xmlns="http://www.w3.org/2000/svg" width="32" height="32" viewBox="0 0 32 32">
  <title>twitter</title>
  <path d="M32 6.091q-1.36 1.99-3.289 3.391 0.020 0.284 0.020 0.853 0 2.64-0.772 5.269t-2.345 5.046-3.746 4.274-5.239 2.964-6.558 1.107q-5.503 0-10.071-2.944 0.711 0.081 1.584 0.081 4.569 0 8.142-2.802-2.132-0.041-3.817-1.31t-2.315-3.239q0.67 0.102 1.239 0.102 0.873 0 1.726-0.223-2.274-0.467-3.767-2.264t-1.492-4.173v-0.081q1.381 0.772 2.964 0.832-1.34-0.893-2.132-2.335t-0.792-3.127q0-1.787 0.893-3.31 2.457 3.025 5.98 4.843t7.543 2.020q-0.162-0.772-0.162-1.503 0-2.721 1.919-4.64t4.64-1.919q2.843 0 4.792 2.071 2.213-0.426 4.162-1.584-0.751 2.335-2.883 3.614 1.888-0.203 3.777-1.015z" fill="#14F195"></path>
</svg>
