<svg version="1.0" id="Layer_1" xmlns="http://www.w3.org/2000/svg" xmlns:xlink="http://www.w3.org/1999/xlink" x="0" y="0" viewBox="0 0 328 234" style="enable-background:new 0 0 328 234" xml:space="preserve"><defs><path id="SVGID_1_" d="M78 31h172v172H78z"/></defs><clipPath id="SVGID_2_"><use xlink:href="#SVGID_1_" style="overflow:visible"/></clipPath><g style="clip-path:url(#SVGID_2_)"><path d="M78 116.8C78 69.4 116.4 31 163.8 31s85.8 38.4 85.8 85.8-38.4 85.8-85.8 85.8c-47.4-.1-85.8-38.5-85.8-85.8z" style="fill:#5865f2"/><path d="M202.4 81.9c-7.3-3.3-14.9-5.7-22.8-7-1 1.8-2.1 4.1-2.9 6-8.4-1.3-16.9-1.3-25.3 0-.9-2.1-1.9-4.1-3-6-7.9 1.3-15.6 3.7-22.8 7.1-14.4 21.5-18.3 42.4-16.4 63.1 8.5 6.3 17.9 11.1 28 14.1 2.3-3.1 4.3-6.3 6-9.7-3.3-1.2-6.4-2.7-9.4-4.5.8-.6 1.5-1.2 2.3-1.8 17.7 8.4 38.3 8.4 56 0 .8.6 1.5 1.2 2.3 1.8-3 1.8-6.2 3.3-9.5 4.5 1.7 3.4 3.7 6.6 6 9.7 10.1-3.1 19.6-7.8 28-14.1 2.2-24-4-44.8-16.5-63.2zm-56.8 50.4c-5.5 0-9.9-5-9.9-11.1s4.4-11.2 9.9-11.2c5.6 0 10 5 10 11.2-.1 6.1-4.4 11.1-10 11.1zm36.8 0c-5.5 0-9.9-5-9.9-11.1s4.4-11.2 9.9-11.2c5.6 0 10 5 9.9 11.2s-4.4 11.1-9.9 11.1z" style="fill:#fff"/></g><path style="fill:none" d="M64 17h200v200H64z"/></svg>