<svg id="Component_5_1" data-name="Component 5 – 1" xmlns="http://www.w3.org/2000/svg" xmlns:xlink="http://www.w3.org/1999/xlink" width="248.963" height="257.169" viewBox="0 0 248.963 257.169">
  <defs>
    <linearGradient id="linear-gradient" y1="0.5" x2="1" y2="0.5" gradientUnits="objectBoundingBox">
      <stop offset="0" stop-color="#14ef95"></stop>
      <stop offset="0" stop-color="#15ee96"></stop>
      <stop offset="1" stop-color="#9a45fe"></stop>
      <stop offset="1" stop-color="gray"></stop>
    </linearGradient>
  </defs>
  <path id="Path_14028" data-name="Path 14028" d="M222.965,307.038a1.55,1.55,0,0,1,.087.377.785.785,0,0,1-.113.466.906.906,0,0,1-.531.364,3.086,3.086,0,0,1-1.485-.041,8.548,8.548,0,0,1-1.554-.537,13.058,13.058,0,0,1-2.587-1.586,9.509,9.509,0,0,1-1.028-.918s.5.245,1.216.628,1.675.887,2.648,1.325a13.456,13.456,0,0,0,1.445.574,3.516,3.516,0,0,0,1.274.215.709.709,0,0,0,.421-.167.683.683,0,0,0,.174-.331A1.452,1.452,0,0,0,222.965,307.038Zm-17.043-28.889a19.329,19.329,0,0,1,.3,3.867c.02,1.744-1.1,2.632-2.427,2.107l-.914-1.163c-.441-.593-.848-1.16-1.208-1.694-.343-.544-.658-1.045-.9-1.509-.264-.456-.434-.875-.611-1.214l-.459-1.113.058.31c.041.2.083.5.172.873.117.364.215.837.421,1.335.1.25.2.523.316.8l.409.863.492.914c.177.312.378.622.575.947.411.638.855,1.3,1.337,1.965s.958,1.352,1.439,2.041a11.349,11.349,0,0,1,1.185,2.152c.059.185.149.367.189.552s.083.358.12.566l.189,1.294a21.865,21.865,0,0,0,.552,2.515,14.215,14.215,0,0,0,.834,2.276,13.135,13.135,0,0,0,2.181,3.33,12.171,12.171,0,0,0,.985.989c.277.267.531.439.685.573l.246.2-.2-.243c-.127-.162-.326-.386-.555-.69s-.506-.671-.8-1.108a17.37,17.37,0,0,1-.89-1.508c-.037-.071-.071-.151-.108-.224a16.618,16.618,0,0,0,2.365,3.025s1.28-.6,4.581.762c-2.568-2.532-4.3-5.064-5.745-10.564S210.459,281.211,205.922,278.149ZM144.656,193.2l4.205,1.25c.572-1.925.882-2.883,1.55-4.785l-4.139-1.452C145.575,190.2,145.252,191.2,144.656,193.2Zm2.894,6.087,4.26,1.045c.457-1.862.708-2.789,1.256-4.633l-4.205-1.25C148.289,196.38,148.026,197.348,147.55,199.292Zm-4.261-1.046c-.5,2.027-.72,3.045-1.118,5.089l4.306.838c.382-1.961.6-2.937,1.073-4.882Zm6.7,11.475c.274-1.889.433-2.832.8-4.709l-2.8-.544-1.51-.294c-.382,1.961-.548,2.945-.834,4.917l.357.052Zm.8-4.709,4.306.838c.349-1.794.546-2.689.982-4.469l-2.976-.73-1.284-.315c-.079.323-.148.611-.215.888C151.279,202.545,151.085,203.46,150.783,205.012Zm-9.482,3.449c-.3,2.057-.422,3.088-.621,5.153l4.367.421c.19-1.982.31-2.972.6-4.944Zm7.77,10.747c.091-1.9.159-2.854.342-4.752l-4.041-.389-.326-.031c-.191,1.981-.262,2.975-.358,4.962l1.031.049Zm4.709-4.331c.174-1.814.284-2.72.546-4.526l-4.341-.63c-.274,1.889-.388,2.837-.571,4.734Zm-13.473,3.91c-.1,2.071-.124,3.108-.124,5.182h4.387c0-1.989.024-2.984.119-4.971Zm8.733,9.283c-.066-1.491-.084-2.43-.084-4.1h-4.387c0,1.989.024,2.983.119,4.97l4.382-.211C149.059,228.5,149.049,228.278,149.04,228.07Zm4.3-4.1c0-1.821.022-2.731.109-4.55l-4.382-.211c-.092,1.9-.115,2.855-.115,4.76Zm-13.036,5.181c.1,2.071.174,3.106.373,5.172l4.367-.421c-.191-1.982-.262-2.975-.358-4.962Zm5.335,9.7,4.342-.63c-.274-1.889-.388-2.837-.571-4.735l-4.367.421C145.237,235.883,145.356,236.873,145.642,238.845Zm3.845-10.136-.417.02c.091,1.9.159,2.854.342,4.752l4.367-.421c-.031-.324-.058-.612-.083-.889-.115-1.272-.173-2.159-.245-3.653ZM141.3,239.475c.3,2.057.472,3.082.87,5.126l4.306-.838c-.382-1.961-.548-2.945-.834-4.917Zm6.249,9.169,4.26-1.045c-.456-1.862-.662-2.8-1.027-4.675l-4.306.838C146.858,245.723,147.073,246.7,147.55,248.645Zm7.539-6.559c-.349-1.794-.5-2.695-.764-4.5l-4.341.63c.274,1.889.433,2.832.8,4.709Zm-11.8,7.6c.5,2.027.77,3.036,1.367,5.042l4.205-1.25c-.572-1.925-.834-2.893-1.311-4.837Zm7.122,8.576,4.139-1.453c-.639-1.821-.936-2.738-1.484-4.581l-4.205,1.25C149.433,255.407,149.743,256.364,150.41,258.266Zm6.861-7.284c-.524-1.762-.764-2.648-1.2-4.427L151.81,247.6c.457,1.862.708,2.789,1.256,4.633Zm3.055,8.7c-.7-1.716-1.025-2.581-1.637-4.321l-4.139,1.452c.639,1.821.982,2.726,1.712,4.522Zm-57.562-68.2,2.964,2.809-2.809-2.964c-.765-.809-1.542-1.607-2.317-2.4-.173-.178-.343-.359-.516-.536l-1.743-1.795-1.1-1.134-2.868-2.906-.078-.079H93.81l-3.229-.012-3.712-.014-7.311.035c-2.083,0-4.166.045-6.249.075-.354.005-.708.012-1.063.016q-3.656.054-7.311.172,3.656.114,7.311.173c2.437.028,4.874.086,7.311.09l7.311.035,7.2-.026,2.824,2.788,1.753,1.7,1.176,1.142C100.8,189.6,101.775,190.548,102.764,191.484ZM80.39,185.771c8.018,0,17.523,3.53,24.582,9.883-6.606-6.605-11.5-11.85-11.5-11.85l-27.229-.3,7.828,7.828S72.372,185.771,80.39,185.771ZM79.558,264.9l7.311.035,7.311-.026H94.3l.078-.079,2.868-2.906,2.845-2.929c.372-.382.738-.768,1.109-1.15l.532-.553c.4-.413.8-.821,1.192-1.237l2.809-2.964-2.964,2.809c-.9.853-1.791,1.717-2.679,2.582l-.261.251-2.929,2.845-2.259,2.23-.565.558h-.048l-7.153-.025-7.311.035c-2.437,0-4.874.062-7.311.09h-.066q-3.026.046-6.05.138c-.4.012-.8.021-1.2.033.33.01.661.017.992.027q3.16.093,6.32.145C74.683,264.837,77.121,264.894,79.558,264.9Zm25.414-13.172c-7.059,6.354-16.565,9.883-24.582,9.883s-6.316-5.559-6.316-5.559l-7.828,7.828,27.229-.3s.327-.35.918-.975c.448-.475,1.054-1.113,1.788-1.881C98.248,258.557,101.349,255.35,104.972,251.727Zm112.417-15.073c-.747.683-1.6,1.5-2.481,2.4-.437.455-.906.909-1.351,1.4l-1.363,1.476-1.321,1.514c-.439.5-.842,1.011-1.244,1.5s-.772.976-1.124,1.436-.673.907-.967,1.32c-.587.826-1.047,1.545-1.345,2.053s-.461.809-.461.809.243-.238.652-.665l1.689-1.757,2.36-2.5,1.316-1.422,1.347-1.48,1.327-1.5c.443-.489.858-.99,1.271-1.465.822-.954,1.573-1.858,2.2-2.646,1.272-1.568,2.053-2.679,2.053-2.679S218.873,235.278,217.389,236.653Zm-54.574-52.771c-.028.008-.058.02-.086.028a10.369,10.369,0,0,1-1.566.318,8.666,8.666,0,0,1-1.355.04,7.429,7.429,0,0,1-1.044-.158,5.541,5.541,0,0,1-.674-.186l-.238-.075.21.134a3.91,3.91,0,0,0,.616.35,5.7,5.7,0,0,0,1.057.39c.212.043.44.1.683.136.243.022.5.058.772.06a8.218,8.218,0,0,0,1.735-.13,11.442,11.442,0,0,0,1.869-.478,17.983,17.983,0,0,0,1.9-.764c.624-.3,1.249-.619,1.858-.958s1.2-.708,1.779-1.065,1.134-.733,1.676-1.081l.121-.079c1.031-.677,1.984-1.308,2.823-1.816.438-.26.844-.486,1.212-.676s.7-.323.979-.429a6.2,6.2,0,0,1,.665-.2l.243-.055-.249-.01a4.247,4.247,0,0,0-.715.028,7.913,7.913,0,0,0-1.091.232,12.256,12.256,0,0,0-1.356.487,29.856,29.856,0,0,0-3.185,1.605c-.562.323-1.148.642-1.726.99s-1.173.685-1.768,1.012c-.228.132-.457.259-.687.384-.206-1.531,3.493-4.565,6.239-5.156-4.7-.145-8.472,4.588-13.277,6.212-.2.066-.39.136-.589.192A5.512,5.512,0,0,0,162.814,183.882Zm34.09-26.71c-.151-.068-.3-.148-.468-.21s-.321-.129-.517-.192l-.13-.033a.7.7,0,0,0-.272,0,.683.683,0,0,0-.365.253,1.854,1.854,0,0,0-.266.52c-.118.325-.188.619-.257.87a4.989,4.989,0,0,1-.189.592,1.5,1.5,0,0,1-.106.222,1.427,1.427,0,0,0,.2-.148,2.313,2.313,0,0,0,.411-.527c.145-.23.281-.516.426-.794a1.932,1.932,0,0,1,.228-.361.121.121,0,0,1,.043-.042l.116.035c.139.04.314.1.471.155s.322.105.476.158c.311.1.605.189.863.255a7.436,7.436,0,0,0,.874.185,6.064,6.064,0,0,0-.739-.5C197.476,157.463,197.2,157.315,196.9,157.172Zm26.226,65.266a1.612,1.612,0,0,1-.014.3,1.236,1.236,0,0,1-.042.307,2.787,2.787,0,0,1-.209.627l-.17.307q-.109.145-.21.3a5.174,5.174,0,0,1-.512.559c-.173.188-.383.348-.573.518-.21.152-.4.327-.6.467-.4.3-.783.567-1.111.8l-.8.57-.3.228.356-.122c.225-.079.542-.2.914-.375a10.759,10.759,0,0,0,1.239-.662,7.427,7.427,0,0,0,1.3-.993,5.521,5.521,0,0,0,.559-.643c.079-.12.155-.241.226-.361s.117-.257.174-.383a2.588,2.588,0,0,0,.167-.777,2.394,2.394,0,0,0-.047-.7,3.084,3.084,0,0,0-.372-.944l-.2-.317.093.363A4.32,4.32,0,0,1,223.13,222.438Zm-43.4,86.58a.707.707,0,0,1-.452-.026,3.5,3.5,0,0,1-1.064-.731,13.284,13.284,0,0,1-1.069-1.13c-.7-.807-1.347-1.67-1.842-2.317s-.838-1.082-.838-1.082a9.48,9.48,0,0,0,.545,1.265,13.107,13.107,0,0,0,1.678,2.529,8.61,8.61,0,0,0,1.184,1.142,3.091,3.091,0,0,0,1.329.662.906.906,0,0,0,.635-.107.778.778,0,0,0,.3-.374,1.533,1.533,0,0,0,.08-.379,1.438,1.438,0,0,1-.185.32A.683.683,0,0,1,179.732,309.018Zm14.28-110.185a5.178,5.178,0,0,0,.592.537c.34.283.536.437.536.437l-.454-.521a5.036,5.036,0,0,1-.5-.6c-.165-.254-.379-.517-.569-.832a7.238,7.238,0,0,1-.524-1.057c-.071-.2-.161-.391-.221-.6s-.117-.428-.177-.647c-.2-.891-.308-1.874-.46-2.878a13.033,13.033,0,0,0-.327-1.493q-.125-.363-.249-.718c-.1-.228-.22-.448-.327-.667a3.493,3.493,0,0,0-.379-.607,5.559,5.559,0,0,0-.41-.546,10.59,10.59,0,0,0-.874-.882c-.3-.247-.573-.462-.817-.65l-.676-.414c-.376-.227-.6-.35-.6-.35s.189.166.528.446l.613.5c.212.218.448.461.715.713a10.5,10.5,0,0,1,.761.906,5.261,5.261,0,0,1,.341.543,4.152,4.152,0,0,1,.322.582l.277.628.211.674a12.276,12.276,0,0,1,.291,1.428c.077.494.154.989.23,1.476a12.885,12.885,0,0,0,.312,1.442l.224.676c.082.218.2.419.287.62a7.723,7.723,0,0,0,.643,1.065A8.55,8.55,0,0,0,194.012,198.834ZM206.8,140.809l-.445.374-.548.405a13.977,13.977,0,0,1-1.381.844,12.875,12.875,0,0,1-1.742.745,14.546,14.546,0,0,1-2.037.517,16.127,16.127,0,0,1-2.233.185,14.581,14.581,0,0,1-2.307-.179,14.76,14.76,0,0,1-2.255-.527,16.115,16.115,0,0,1-2.084-.84c-.5-.262-.978-.533-1.427-.823-.129-.083-.267-.161-.388-.249a15.314,15.314,0,0,1-1.486-1.186c-.425-.41-.8-.805-1.116-1.175s-.568-.712-.759-1.006c-.208-.283-.345-.532-.448-.692l-.154-.25.095.277a6.874,6.874,0,0,0,.3.775,9.785,9.785,0,0,0,.6,1.162l.441.676c.164.232.357.46.55.708a11.574,11.574,0,0,0,1.44,1.424c.155.133.33.256.5.383a12.452,12.452,0,0,0,1.366.912,13.8,13.8,0,0,0,2.213,1.009,16.036,16.036,0,0,0,2.439.615c.407.06.816.1,1.225.124.431.026.862.036,1.289.028a13.45,13.45,0,0,0,2.42-.308,11.657,11.657,0,0,0,2.16-.722c.334-.136.642-.313.944-.466.288-.182.572-.344.828-.526a10.281,10.281,0,0,0,1.316-1.082l.493-.506.379-.463a6.893,6.893,0,0,0,.484-.678l.163-.243-.2.188-.015.014C207.263,140.382,207.075,140.587,206.8,140.809Zm-24.215-2.167s-.083.19-.214.518a2.981,2.981,0,0,1-.264.575,7.084,7.084,0,0,1-1.011,1.447,8.61,8.61,0,0,1-.751.758c-.268.257-.578.491-.878.746l-.947.75c-.314.261-.634.519-.933.8a7.881,7.881,0,0,0-.831.882,4.72,4.72,0,0,0-.335.482l-.153.239-.114.256c-.071.169-.155.327-.207.491s-.074.33-.11.486a2.3,2.3,0,0,0-.065.71c0,.051,0,.1,0,.151a2.734,2.734,0,0,0,.058.644c.059.352.1.552.1.552s.012-.2.017-.561a2.6,2.6,0,0,1,.049-.634,4.107,4.107,0,0,1,.18-.777l.151-.428c.066-.142.152-.28.229-.426l.12-.22.159-.205c.113-.134.2-.288.331-.419l.386-.4.429-.387c.289-.262.605-.509.921-.761a20.036,20.036,0,0,0,1.816-1.585l.394-.419c.121-.144.228-.3.338-.439a5.479,5.479,0,0,0,.538-.857,4.587,4.587,0,0,0,.328-.786,1.963,1.963,0,0,0,.111-.351c.022-.1.04-.194.058-.277C182.554,138.842,182.584,138.642,182.584,138.642Zm39.749-1h0l-.045.1-.091.195a3.279,3.279,0,0,1-.195.378c-.155.22-.3.453-.468.659a11.357,11.357,0,0,1-2.211,1.983,20.341,20.341,0,0,1-2.317,1.389c-.762.385-1.493.725-2.185,1a19.432,19.432,0,0,1-1.922.673c-.583.178-1.1.3-1.54.391a8.43,8.43,0,0,1-1.031.147l-.289.025-.42.353c-.039.1-.129.085-.2.111s-.156.044-.234.066c-.158.043-.315.1-.472.155-.316.105-.627.243-.935.379s-.613.288-.9.464a8.912,8.912,0,0,0-.87.531,8.488,8.488,0,0,0-.831.594q-.343.253-.66.538c-.066,4.512-.182,7.839-4.231,9.526a1.51,1.51,0,0,1,.184.394,1.941,1.941,0,0,1-1.031,2.151,2.517,2.517,0,0,0-.853.9c.109.051.218.1.325.155l.447.229-.158.5a24.173,24.173,0,0,0-.6,2.369c-.166.809-.312,1.627-.441,2.448-.256,1.642-.459,3.3-.6,4.954-.074.828-.127,1.656-.154,2.478-.014.411-.016.818,0,1.218,0,.2.025.349.031.526.013.095.039.2.057.3l.015.078,0,.019,0,.01c-.027-.1-.006-.025-.012-.046v.006l.012.051.044.205a4.071,4.071,0,0,1-.051,1.482,10.046,10.046,0,0,1-.374,1.294,16.693,16.693,0,0,1-.906,2c.242.2.483.4.72.6.124.108.241.223.363.333h44.279a14.865,14.865,0,0,1,6.009,1.249,117.25,117.25,0,0,1,46.274,36.458,5.073,5.073,0,0,1,.169,5.91A96.921,96.921,0,0,1,247.208,262.3a14.952,14.952,0,0,1-5.193.922H219.467c-1.385,4.118-3.149,10.252-3.049,14.54.141,6.029.881,10.905,2.2,14.492a28.71,28.71,0,0,1,.993,3.33,18.253,18.253,0,0,0,2.791,6.441c2.748,3.544,3.6,6.407,2.313,7.84a2.2,2.2,0,0,1-.716.528c-1.356.63-3.581.116-6.193-1.477-5.488-3.348-11.876-8.08-12.562-15.02-.308-3.117-1.934-5.305-3.654-7.622-1.7-2.288-3.455-4.652-4.176-8.1-.607-3.9,3.638-7,4.828-7.792l-.029-1.969c.009-.772.006-1.543.024-2.315s.035-1.543.085-2.315c.006-.127.018-.253.025-.379a5.545,5.545,0,0,1-1.932.592q-.543.046-1.071.045c-.2,0-.395-.017-.592-.027-.884.837-9.474,9.067-12.134,15.155-2.414,5.527-3.8,10.261-4.114,14.069a28.806,28.806,0,0,1-.5,3.438,18.244,18.244,0,0,0-.184,7.017c1,4.372.559,7.325-1.207,8.084a2.2,2.2,0,0,1-.872.177c-1.5,0-3.3-1.4-4.993-3.951-3.566-5.349-7.364-12.332-5.06-18.915,1.035-2.956.483-5.626-.1-8.453-.577-2.79-1.172-5.675-.371-9.109,1.092-3.788,6.251-4.818,7.662-5.031l.8-1.8q.352-.735.7-1.472H139.275a8.582,8.582,0,0,1-5.116-1.678l-11.269-8.281-6.72-5.168h-.94L95.263,268.065H55.281L75.249,248.1H68.166l-.267-.423a45.386,45.386,0,0,1-4.778-10.325c-4.237-1.186-8.9-5.281-8.772-13.269,0-.048.006-.1.007-.144l-7.875-.518a.592.592,0,0,1,0-1.181l8.089-.545c.744-4.6,3.433-9.25,8.314-10.6A44.894,44.894,0,0,1,67.9,200.111l.267-.422h7.486L55.281,179.317H95.263L115.5,199.552l8.545-7.406,3.743-3.216c-.049-.026-.1-.054-.15-.083a1.332,1.332,0,0,1-.325-.257,1.108,1.108,0,0,1-.22-.311c-.119-.092-.291-.227-.491-.388a5.676,5.676,0,0,1-.48,2.251,1.228,1.228,0,0,1-.823.678,1.3,1.3,0,0,1-.262.028c-1.043,0-1.751-1.31-2.231-2.2-.062-.115-.12-.222-.173-.315a3.869,3.869,0,0,0-.8-.777c-.6-.5-1.225-1.013-1.249-1.72a46.7,46.7,0,0,1,.165-6c.25-1.138,2.044-1.476,4.186-1.773l.4-.056a2.079,2.079,0,0,1,2.425-1.407,2.116,2.116,0,0,1,.389-.43,3.9,3.9,0,0,1,1.7-.782,9.115,9.115,0,0,1,1.694-.2l.033,0,.094.011c.2.022.4.064.6.068a5.793,5.793,0,0,0,.617.012,8.243,8.243,0,0,0,1.248-.139,10.885,10.885,0,0,0,1.238-.311c.2-.064.406-.134.605-.209s.4-.16.573-.239l.193-.089.157.035h0a9.757,9.757,0,0,1,1.027.325l2.106-3.115c.365-.89,4.816-11.743,5.962-15.183,1.207-3.619,5.2-11.928,8.986-14.828a13.869,13.869,0,0,0,1.838-2.748c.177-.355.483-1.113.87-2.072,1.285-3.186,3.582-8.869,6.025-11.73l-.692-.154-.363-.079-.1-.273a1.381,1.381,0,0,1-.092-.383,1.935,1.935,0,0,1-.006-.293,2.52,2.52,0,0,1,.081-.527,3.847,3.847,0,0,1,.366-.9,7.5,7.5,0,0,1,1.067-1.432,14.542,14.542,0,0,1,1.253-1.172l.673-.532.666-.482.166-.12.041-.03.032-.022.017-.015.071-.059.287-.235a3.119,3.119,0,0,0,.543-.5c.158-.191.337-.362.48-.566l.407-.633a10.364,10.364,0,0,0,.638-1.4c.2-.481.336-1,.5-1.508.29-1.038.555-2.1.868-3.167.165-.531.327-1.067.526-1.593a15.93,15.93,0,0,1,.661-1.561,12.8,12.8,0,0,1,.82-1.5,5.481,5.481,0,0,1,.478-.709l.512-.687c.363-.44.768-.843,1.152-1.265l1.29-1.116.707-.025.845.622c.128-.081.311-.192.546-.325a36.541,36.541,0,0,0,.791-7.121,11.218,11.218,0,0,1-2.494-7.685c-3.548,1.593-5.346,2.238-6.293,2.239a1,1,0,0,1-.777-.276c-.764-.815.127-1.875,1.159-3.1a8.693,8.693,0,0,0,1.566-2.276,28.911,28.911,0,0,1-2.381-9.417,16.9,16.9,0,0,1,4.932-13.188,23.52,23.52,0,0,1,15.858-6.719c5.782.186,10.639,3.538,14.442,9.963,1.035.27,4.452,1.294,5.33,3.217a2.344,2.344,0,0,1-.094,2.128,11,11,0,0,1-1.8,2.318c.212.131.466.262.716.39,1.139.585,3,1.544,2.171,3.856a3.924,3.924,0,0,1,.84,3.5c2.465,2.227,5.179,5.38,4.361,8.937,1.056.461,2.064.867,2.809,1.167l.422.17c.482.2,1.694.509,3.228.906,5.9,1.528,16.87,4.368,22.315,9.247a6.758,6.758,0,0,1,3.021,4.551,3.776,3.776,0,0,1-1.127,3.224c-.247.689-1.393,2.513-6.673,5.11-3.622,1.781-8.191,2.415-11.942,2.74-.2,2.775-1.669,7.113-6.22,7.389.006.147.007.3.016.443a6.98,6.98,0,0,0,.227,1.535,1.854,1.854,0,0,0,.134.36l.069.158.094.195a5.532,5.532,0,0,1,.315.784,7.608,7.608,0,0,1,.352,2.988,4.9,4.9,0,0,1-.256,1.238,2.937,2.937,0,0,1-.517.933,2.036,2.036,0,0,1-.377.358c.022.121.049.238.07.36a14.4,14.4,0,0,1,.212,3c-.022.272-.062.558-.1.836-.048.26-.117.475-.174.714l-.02.061-.006.013-.011.024Zm23.88-30.054c.081-.074.155-.151.225-.229a2.561,2.561,0,0,0,.647-2.084,5.588,5.588,0,0,0-2.471-3.672l-.111-.08c-5.207-4.706-16.037-7.511-21.856-9.017-1.64-.424-2.824-.731-3.379-.955l-.42-.17c-3.569-1.436-7.471-3.1-8.621-4.732a13.437,13.437,0,0,1-1.9-4.409c-.025.434-.06.876-.112,1.329-.059.56-.139,1.135-.225,1.718-.065.436-.132.875-.2,1.321-.166,1.043-.354,2.113-.482,3.185-.009.074-.016.148-.025.222l.364.312c.251.22.559.447.836.67.477.36.965.711,1.454,1.061h0c.108.077.212.158.321.234,1.2.848,2.43,1.664,3.668,2.468.236.153.475.3.712.451q.967.617,1.936,1.227l.047-.027.056.092c.331.207.657.421.988.626.634.392,1.242.76,1.9,1.143.083.054.161.112.243.167l.04-.027c.021.031.037.063.058.095.521.356,1.024.726,1.507,1.087,2.377,1.782,4.7,3.619,7.046,5.423l3.514,2.708c.146.113.278.211.436.323l.436.292c.3.194.61.381.927.558.62.349,1.261.683,1.9.995.258.067.528.13.795.185q.487.1.98.161a7.243,7.243,0,0,0,.991.064,4.1,4.1,0,0,0,.5-.032,2.369,2.369,0,0,0,.487-.121,2.4,2.4,0,0,1-.268.161c-.06.034-.113.077-.176.105a4.29,4.29,0,0,1-.49.185,7.685,7.685,0,0,1-1.021.243c-.345.06-.692.108-1.04.141s-.692.06-1.061.068l-.079,0-.117-.062h0l-.043-.024c-.657-.346-1.291-.7-1.925-1.084-.322-.2-.644-.4-.964-.6l-.483-.331c-.143-.1-.307-.228-.452-.343l-3.492-2.748q-1.395-1.1-2.805-2.18c-1.4,1.676-2.016,4.277-2.186,6.875a25.3,25.3,0,0,0-.027,2.718l.042.005c.2.02.452.06.721.074l.92.065c.685.029,1.486.047,2.348.035s1.783-.06,2.7-.138a50.8,50.8,0,0,0,5.045-.651c.684-.123,1.251-.247,1.644-.344a6.21,6.21,0,0,0,.613-.176,6.2,6.2,0,0,1-.6.226c-.386.129-.943.3-1.618.478a50.965,50.965,0,0,1-5.014,1.068c-.922.154-1.851.268-2.726.363s-1.7.133-2.406.161l-.979.01c-.243.006-.44,0-.619-.011.03.344.066.677.106,1,.725-.086,1.644-.15,2.727-.225,3.941-.271,9.9-.681,14.263-2.828,5.576-2.742,6.073-4.448,6.078-4.465l.029-.216Zm-20.44,8.828c-1.015.07-1.927.134-2.626.215a6.86,6.86,0,0,0,.762,2.406c.1.136.143.127.175.117.561-.169,1.408-1.693,1.757-2.742Zm-7.443-14.169c-.013.572-.074,1.146-.143,1.727-.007.045-.016.09-.022.136,1.213-2.3,1.423-3.885.7-4.984-.384-.223-.775-.455-1.166-.691a4.607,4.607,0,0,1,.241.691c.064.224.142.454.2.7.038.247.078.5.118.767a5.6,5.6,0,0,1,.066.811A6.975,6.975,0,0,1,218.33,102.248Zm-2.424,2.844a4.1,4.1,0,0,1,.654,1.2c.035-.266.071-.532.107-.8l.223-1.687c.061-.547.114-1.084.12-1.594a5.941,5.941,0,0,0-.014-.747,4.649,4.649,0,0,0-.062-.706q-.054-.338-.105-.658l-.159-.6a6.129,6.129,0,0,0-.355-1.009c-.063-.148-.1-.283-.174-.415l-.2-.366-.293-.549q-.567-.353-1.132-.71C215.5,98.792,216.842,102.285,215.906,105.092ZM215.412,111c.246-1.814.45-3.418-.138-4.625-.056.083-.112.166-.173.246a6.926,6.926,0,0,1-.062,3.4c-.306,1.869-.661,4.04.246,5.866A15.146,15.146,0,0,1,215.412,111Zm-.12,15.595c-.177-6.646-2.771-14.922-4.511-18.725-.027.017-.056.04-.083.055a3.236,3.236,0,0,1-.615.306,2.033,2.033,0,0,1-.289.109c0,.3.016.6.02.888,0,.379.043.734.063,1.067s.036.638.068.908.051.508.07.7c.04.391.051.619.051.619s-.089-.208-.224-.578l-.245-.67c-.106-.257-.172-.561-.268-.887a10.546,10.546,0,0,1-.259-1.07,12.019,12.019,0,0,1-.2-1.221,9.258,9.258,0,0,1-.083-.977l-.133.129a1.957,1.957,0,0,1-.333.251l-.121.081.1-.111a2.792,2.792,0,0,0,.253-.315l.153-.237.07-.163a13.126,13.126,0,0,1,.029-1.361c.009-.166.024-.329.038-.492a5.593,5.593,0,0,0-.314-.9,18.064,18.064,0,0,0-1.1-2.014c-.418-.674-.879-1.332-1.274-1.988a11.42,11.42,0,0,1-1-1.929,3.127,3.127,0,0,1-.2-.988,1.762,1.762,0,0,1,.218-.927,1.356,1.356,0,0,1,.12-.165,8.59,8.59,0,0,1-1.413-4.846,5.772,5.772,0,0,0,.7,4.533s-.554.6.151,2.925c0,0-1.614.958-.3,5.345-1.312-1.16-3.53-5.9-6.657-5.144a19.207,19.207,0,0,0,3.83-3.886c-.276.265-.555.523-.835.779-1.186,1.072-2.4,2.1-3.655,3.09l-.116.09c-.978.768-1.976,1.513-3.025,2.21-.179.119-.356.239-.537.356l.312.151c.34.158.687.375,1.075.6s.784.5,1.2.791.845.605,1.276.947c.867.677,1.76,1.434,2.61,2.241a15.2,15.2,0,0,1,1.219,1.274,3.626,3.626,0,0,1,.484.75c.132.223.281.455.43.68l1.682,2.448a16.731,16.731,0,0,1,1.093,1.8,3.355,3.355,0,0,1,.218.548l.028.207-.041-.2a3.305,3.305,0,0,0-.251-.528,16.539,16.539,0,0,0-1.2-1.715l-1.839-2.336c-.166-.217-.332-.44-.5-.688a3.093,3.093,0,0,0-.475-.642,14.78,14.78,0,0,0-1.251-1.145,32.451,32.451,0,0,0-5.185-3.542c-.376-.187-.72-.372-1.031-.49l-.431-.177-.34-.106a2.076,2.076,0,0,0-.4-.1,5.058,5.058,0,0,1-1.274.47,1.747,1.747,0,0,1-.481.033,9.357,9.357,0,0,1,3.026,7.454,51.284,51.284,0,0,0,.385,14.34,15.911,15.911,0,0,0,3.575,7.813c2.32,2.513,5.628,3.8,10.266,3.978q.544.022,1.112.023c.131,0,.258,0,.392,0a5.252,5.252,0,0,0,4.793-2.507C214.993,132.047,215.368,129.472,215.291,126.594ZM185,98l1.661,1.853.069.039c.051.028.3.169.666.408q-.346-.432-.676-.866c-.479-.626-.958-1.291-1.422-1.828a8.67,8.67,0,0,0-.807-.78c-.021-.019-.041-.041-.063-.061a11.606,11.606,0,0,0,.192,3.273c.2-.033.4-.063.6-.091A3.944,3.944,0,0,1,185,98Zm-3.2,2.739c.359-.117.733-.23,1.126-.334-.021-1.162-.134-4.414-.752-5.279-.7-.985-2.713-5.328-2.056-7.634-.159-.3-.315-.593-.463-.9l-.006-.013c-.927,2.287.063,4.336,1.029,6.323a9.977,9.977,0,0,1,1.294,3.867A22.031,22.031,0,0,1,181.806,100.739Zm-1.313.411a15.865,15.865,0,0,0,.277-4.341c0-.007,0-.014,0-.021l-.009.016a6.348,6.348,0,0,1-.627-.443,38.072,38.072,0,0,1-.593,5.267c.319-.147.667-.3,1.046-.449ZM181.8,86.728c-.045.013-.089.029-.134.04a2.539,2.539,0,0,1-.52.068c.025.046.047.093.072.139.268.491.557.981.85,1.457l.059,0a1.758,1.758,0,0,0,.7-.161,2.046,2.046,0,0,0,.312-.167,4.334,4.334,0,0,0,.868-.75l.124-.138.02-.186.119-1.2a.5.5,0,0,1-.045.055,1.194,1.194,0,0,1-.234.165,2.156,2.156,0,0,1-.52.183,3.561,3.561,0,0,1-.92.068,1.668,1.668,0,0,1-.186.156,1.278,1.278,0,0,1,.539.664c.194.482.139.958-.119,1.092a.231.231,0,0,1-.025.016c-.281.113-.672-.2-.872-.7A1.326,1.326,0,0,1,181.8,86.728Zm1.408,6.566a9.93,9.93,0,0,0,1.377,1.744c.26.272.54.53.821.794a9.908,9.908,0,0,1,.894.874c.1.121.2.239.295.358.43.533.8,1.049,1.194,1.565.472.626.948,1.239,1.455,1.789a6.328,6.328,0,0,0,.781.734,2.577,2.577,0,0,0,.375.245l.054.016c.07.026.044,0,.037-.006-.048,0,.035-.008.1-.02a7.842,7.842,0,0,0,1.941-.882,42.168,42.168,0,0,0,3.856-2.64c1.252-.947,2.479-1.935,3.665-2.96.3-.257.59-.516.875-.779a10.445,10.445,0,0,0,.783-.776l.185-.232a2.354,2.354,0,0,0,.116-.206,2.67,2.67,0,0,0,.214-.457,7.193,7.193,0,0,0,.322-1.061A25.846,25.846,0,0,0,203,86.865c-.01-.159-.022-.317-.035-.475,0-.046-.006-.093-.01-.139a2.793,2.793,0,0,0,1.962-.542c.087-.283.176-.563.264-.842l.092-.291a3.018,3.018,0,0,1-.461.786,1.2,1.2,0,0,1-.79.424,1.784,1.784,0,0,1-.532-.013l-.181-.026.178-.039a2.3,2.3,0,0,0,.47-.153.948.948,0,0,0,.476-.459,4.019,4.019,0,0,0,.26-.906c.132-.715.256-1.585.441-2.511.1-.464.182-.946.305-1.421a6.2,6.2,0,0,0,.192-1.346,4.158,4.158,0,0,0-.129-1.293,2.952,2.952,0,0,0-.51-1.076,1.706,1.706,0,0,0-.687-.53c-.88.685-1.636,1.236-2.086,1.557-.053.114-.1.218-.127.292l0,.012a2.553,2.553,0,0,0,.053.382c.155.754.605,1.764.843,2.841.026.119.048.239.067.359a4.735,4.735,0,0,1,.052,1.257,3.407,3.407,0,0,1-.416,1.34,4.04,4.04,0,0,1-.586.792l-.267.26.247-.277a3.973,3.973,0,0,0,.521-.818,3.257,3.257,0,0,0,.309-1.31,4.861,4.861,0,0,0-.222-1.527c-.3-1.021-.81-1.969-1.045-2.792a3.136,3.136,0,0,1-.087-.4c-.15.059-.443.172-.849.323v.009c0,.111.007.247.025.4.08.6.384,1.42.609,2.267a6.086,6.086,0,0,1,.218,1.275,2.8,2.8,0,0,1-.156,1.117,1.837,1.837,0,0,1-.2.4,1.176,1.176,0,0,1-.2.277l-.194.225.174-.241a1.126,1.126,0,0,0,.174-.288,1.759,1.759,0,0,0,.155-.406,2.669,2.669,0,0,0,.055-1.071,5.872,5.872,0,0,0-.317-1.2,23.321,23.321,0,0,1-.823-2.264c-.022-.107-.032-.2-.045-.3-.722.265-1.665.6-2.719.949-.8.265-1.657.537-2.54.8-1.368.4-2.784.768-4.082,1.012a4.2,4.2,0,0,0,.92-.055,9.846,9.846,0,0,0,1.257-.318,3.121,3.121,0,0,1-.808.567v.059c0,.025,0,.049,0,.079a1.02,1.02,0,0,0,.093.342l.041.078c.013.022.036.054.039.06l.105.206-.06.083a4.173,4.173,0,0,1-.323.454,2.913,2.913,0,0,1-.384.4,1.658,1.658,0,0,1-.214.171,2.583,2.583,0,0,1-.223.156,3.781,3.781,0,0,1-.476.254,4.747,4.747,0,0,1-2.055.4,4.793,4.793,0,0,0,.74-.132,1.219,1.219,0,0,1-.581-.681,1.585,1.585,0,0,1-.109-.453,3.872,3.872,0,0,1-.4.142,1.587,1.587,0,0,1-.221.055,1.551,1.551,0,0,1-.228.032.829.829,0,0,1-.241-.015.374.374,0,0,1-.2-.107.338.338,0,0,0,.211.006.789.789,0,0,0,.184-.066,2.89,2.89,0,0,0,.361-.2c.234-.149.466-.307.692-.475l1.212-.871c-.6.258-2.244.958-4.011,1.719-1.184.51-2.423,1.048-3.448,1.5-.549.242-1.308.6-2.174,1,.063.142.127.281.2.43.082.169.172.337.26.5.169-.082.334-.163.49-.247a2.35,2.35,0,0,0,.7-.516l.1-.127.161.017c.314.031.646.046.966.067.161,0,.321.012.479,0a1.5,1.5,0,0,0,.237-.028.677.677,0,0,0,.138-.055c.013-.176.027-.351.029-.526a1.875,1.875,0,0,0-.062-.622,1.063,1.063,0,0,1,.167.277,1.857,1.857,0,0,1,.106.318,4.284,4.284,0,0,1,.116.643,9.154,9.154,0,0,1,.056,1.29c0,.429-.038.854-.071,1.279l-.073.634-.039.315-.028.2a18.384,18.384,0,0,0,1.681,1.705,5.258,5.258,0,0,1-1.156-.6A6.261,6.261,0,0,1,184,89.762l-.071-.073v-.11c0-.141.009-.235.015-.345l.026-.317.055-.631.025-.238c-.012.017-.02.035-.033.052a2.027,2.027,0,0,1-.551.519,1.693,1.693,0,0,1-.738.257,1.275,1.275,0,0,1-.364-.012c-.012,0-.02-.007-.031-.009l.057.09-.039.242A5.952,5.952,0,0,0,183.209,93.293Zm6.759-9.386a4.341,4.341,0,0,0,.734-.34,3.418,3.418,0,0,0,.41-.287c.068-.048.123-.111.185-.165a1.413,1.413,0,0,0,.172-.176,2.521,2.521,0,0,0,.3-.387,1.717,1.717,0,0,0,.155-.274c-.022-.029-.044-.058-.063-.089a1.479,1.479,0,0,1-.127-.243,1.517,1.517,0,0,1-.079-.251,2.94,2.94,0,0,1-1.032.138,8.961,8.961,0,0,1-.975.654,1.546,1.546,0,0,1,.295.474A1.161,1.161,0,0,1,189.968,83.907Zm16.053,5.737c.128-1.124.312-2.2.471-3.239s.309-2.034.4-2.978c0-.01,0-.02,0-.031-.176.614-.369,1.226-.561,1.835-1.375,4.357-2.678,8.5,2.172,12.5-.288-.454-.584-.913-.882-1.38s-.6-.945-.888-1.448l-.218-.4-.2-.391a9.526,9.526,0,0,1-.3-.935A11.228,11.228,0,0,1,206.021,89.644Zm5.034,4.576c2.688,5.409,3.6,9.086,2.7,10.932a2.341,2.341,0,0,1-1.683,1.278c-.017.036-.028.077-.047.112a3.184,3.184,0,0,1-.3.48c.067.139.134.281.2.434a4.6,4.6,0,0,0,2.707-2.4c1.133-2.594-.477-6.368-1.438-8.622-.182-.426-.334-.79-.46-1.116Q211.892,94.776,211.055,94.22Zm1.345,14.347c.379.924.779,2,1.175,3.178.068-.682.173-1.334.269-1.922a12.647,12.647,0,0,0,.241-2.2A7.161,7.161,0,0,1,212.4,108.568Zm-3.411-15.719-.032-.062c-.4-.279-.8-.555-1.189-.845-.2-.159-.4-.309-.6-.466a6.989,6.989,0,0,0,.095,1.455c.047.238.136.445.194.674l.173.364.18.345c.256.475.541.948.824,1.42.569.941,1.145,1.876,1.669,2.8q.207.37.4.741l.028.018-.01.017a13.848,13.848,0,0,1,1.707,4.755,5.294,5.294,0,0,1,.01.864,1.147,1.147,0,0,0,.227-.311C213.04,103.855,213.43,101.173,208.989,92.849Zm1.394,9.384c0,.219-.02.439-.031.664-.085.89-.266,1.756-.382,2.614q-.087.646-.133,1.282-.019.319-.038.632c0,.209-.005.417-.007.62,0,.009,0,.017,0,.026.044-.035.088-.067.135-.107a4.356,4.356,0,0,0,.477-.419,3.616,3.616,0,0,0,.9-1.331,4.343,4.343,0,0,0,.175-2.032,11.451,11.451,0,0,0-1.282-3.573,9.138,9.138,0,0,1,.169.978Q210.373,101.9,210.384,102.233Zm-1.352-.532a6.745,6.745,0,0,0-.17-.958,6.21,6.21,0,0,0-.231-.792,4.639,4.639,0,0,0-.242-.626l-.089-.214a14.158,14.158,0,0,1-2.138-1.967,2.145,2.145,0,0,0,.116.542,10.7,10.7,0,0,0,.824,1.762c.364.647.752,1.356,1.134,2.077a17.192,17.192,0,0,1,.774,1.665c.012-.131.024-.264.03-.389,0-.193.018-.384.017-.568S209.04,101.874,209.032,101.7Zm-3.04-26.066a3.952,3.952,0,0,1-.773-.348l-.069.056a2.52,2.52,0,0,1,.584.446Zm7.266,11.878c-.162-1.756-1.484-3.235-2.773-4.671-.364-.4-.718-.8-1.046-1.2a12.238,12.238,0,0,0,1.777,4.309,2.287,2.287,0,0,0,.223.265c-.228-1-.718-2.4-.718-2.4a7.564,7.564,0,0,1,1.907,3.319C212.825,87.262,213.038,87.387,213.258,87.513Zm-3.8-8.047-.068-.056c0,.008,0,.017,0,.025a13.487,13.487,0,0,0,2,2.6c1.528,1.7,3.245,3.615,3.1,6.126q.433.216.879.424C216.011,84.863,211.95,81.52,209.454,79.466Zm-.9-3.078c.077.241.161.486.25.738.032.088.063.177.094.266.306.3.837.738,1.326,1.139.245.2.509.419.785.651C211.007,77.617,210.031,76.9,208.553,76.388Zm-1.027-3.109c-.417.395-.853.784-1.289,1.158.365.136.837.262,1.231.367a11.077,11.077,0,0,1,2.786,1.034c.157-.936-.52-1.358-1.69-1.958A8.2,8.2,0,0,1,207.527,73.278Zm-12.13,1.5c5.8-3.349,9.364-6.487,10.551-8.447-.38-.139-.737-.254-1.034-.34-.909,1.739-3.533,3.79-11.039,7.393-3.041,1.459-6.879,3.173-11.736,5.224a21.429,21.429,0,0,1-9.518,3.587q.1.262.184.481c4.931-.413,9.83-3.686,9.83-3.686a25.027,25.027,0,0,0,7.1-1.316c.9-.389,1.45-.636,1.476-.648Q193.469,75.9,195.4,74.777ZM172.3,67a16.285,16.285,0,0,0-1.368,7.6c.016.141.034.272.05.409h.219c.268-.009.581-.049.944-.08-.035-.454-.059-.925-.062-1.416a16.751,16.751,0,0,1,.081-1.81c.045-.618.168-1.24.273-1.863q.095-.376.2-.75c.1-.361.2-.719.333-1.067a6.052,6.052,0,0,1,.347-.863,9,9,0,0,1,.4-.816c.148-.259.28-.521.433-.762l.48-.688a11.06,11.06,0,0,1,.985-1.166,9.835,9.835,0,0,1,.94-.871,8.364,8.364,0,0,1,.779-.6c.452-.3.714-.463.714-.463s-.2.241-.553.642c-.185.192-.373.46-.609.742s-.466.63-.734.988c-.139.176-.25.384-.379.586s-.275.4-.386.634l-.37.687-.343.737a8.085,8.085,0,0,0-.313.777c-.1.264-.2.532-.283.81a16.853,16.853,0,0,0-.453,1.695c-.109.58-.239,1.157-.295,1.74-.081.578-.135,1.154-.179,1.713-.022.426-.044.837-.066,1.238.119-.02.231-.041.355-.06l.121-.027.378-.085c.014-.254.029-.506.062-.755.039-.39.085-.773.148-1.141a18.237,18.237,0,0,1,.425-1.991,12.657,12.657,0,0,1,.649-1.872,12.638,12.638,0,0,0-.557,1.894,17.915,17.915,0,0,0-.327,1.995c-.045.367-.074.747-.093,1.134-.019.222-.023.446-.025.671.23-.052.465-.107.706-.173l.362-.1c.022-.4.062-.817.1-1.239.023-.361.115-.72.17-1.087a8.634,8.634,0,0,1,.236-1.1c.1-.365.19-.738.307-1.1l.4-1.081c.125-.364.322-.7.479-1.047l.249-.516.3-.487c.2-.318.373-.655.6-.948l.658-.876c.219-.285.477-.53.706-.788a6.4,6.4,0,0,1,.719-.712l.719-.634c.239-.2.492-.357.723-.527s.451-.335.677-.467l.093-.053.552-.312.567-.32.506-.224.287-.125.674-.293-.648.3-.3.14-.5.235-.557.334-.446.266-.188.112c-.221.136-.43.315-.661.481s-.471.341-.7.54l-.7.646a6.359,6.359,0,0,0-.693.722c-.22.262-.468.509-.678.8l-.627.88c-.217.293-.375.631-.568.948l-.279.485-.232.514c-.146.346-.331.678-.445,1.039l-.367,1.069c-.106.36-.182.727-.273,1.087a8.161,8.161,0,0,0-.2,1.083c-.045.36-.127.712-.14,1.065s-.048.721-.063,1.07c.273-.079.551-.163.83-.26.568-.176,1.143-.389,1.729-.607s1.17-.466,1.756-.71c.578-.264,1.164-.51,1.721-.794.565-.269,1.11-.555,1.633-.841s1.015-.585,1.49-.855c.46-.3.9-.568,1.29-.841s.752-.521,1.047-.774.57-.451.77-.645l.075-.072.223-.214c-.083-.1-.163-.2-.251-.29l-.481-.493c-.166-.158-.345-.3-.514-.45a5.046,5.046,0,0,0-.531-.415c-.183-.126-.353-.268-.54-.377a10.541,10.541,0,0,0-1.089-.611,10.114,10.114,0,0,0-1.031-.44c-.146-.053-.287-.1-.424-.14a8.777,8.777,0,0,0-1.2-.285c-.2-.041-.361-.04-.469-.056l-.166-.016.167.01c.109.01.27,0,.472.036a8.776,8.776,0,0,1,1.219.237c.14.037.284.077.433.124a10.085,10.085,0,0,1,1.06.4,10.63,10.63,0,0,1,1.13.575c.2.1.373.24.566.361a5.129,5.129,0,0,1,.559.4c.18.146.369.284.546.439l.514.486c.091.09.176.186.264.28l.1-.1-.1.1c.114.122.219.25.328.376.065.074.131.147.194.222.048.058.1.113.149.171.236.337.493.654.7.994.026.044.055.088.079.133.1.16.189.318.279.475a4.385,4.385,0,0,0,.352-.31,3.6,3.6,0,0,0,.51-.525l.163-.2-.158.207a3.572,3.572,0,0,1-.5.54,4.492,4.492,0,0,1-.35.323,6.1,6.1,0,0,1,.313.618,9.2,9.2,0,0,1,.453,1.049,9.732,9.732,0,0,0,1.484-2.751l-.561-1.017c-.233-.342-.456-.7-.7-1.043-.269-.325-.505-.68-.8-.977a11,11,0,0,0-.856-.874c-.139-.139-.283-.264-.428-.384s-.3-.244-.442-.364c-.293-.217-.567-.428-.838-.6a10.708,10.708,0,0,0-1.3-.733c-.363-.171-.587-.249-.587-.249a7.231,7.231,0,0,1,.764.295,10.767,10.767,0,0,1,1.172.607c.28.158.566.359.872.565l.132.1c.257.192.526.386.781.619a11.144,11.144,0,0,1,.908.849c.312.29.568.639.857.959.27.337.514.694.768,1.035l.414.678c1.555-6.019-5.027-10.748-9.342-9.4,3.812-1.431,5.976-1.1,5.976-1.1a16.433,16.433,0,0,1,12.4,8.85,40.384,40.384,0,0,1-7.586,4.823c.006.021.017.045.022.066l.146.478c4.219-2.072,6.936-3.711,8.414-5.061l-.181-.41a6.661,6.661,0,0,0-.409-.8l-.261-.472-.34-.512a12.039,12.039,0,0,0-.822-1.119c-.291-.4-.671-.764-1.026-1.175-.4-.369-.774-.79-1.221-1.146l-.661-.556-.7-.52c-.47-.344-.965-.654-1.457-.95a15.862,15.862,0,0,0-1.5-.777c-.49-.25-1-.407-1.466-.594-.482-.139-.936-.292-1.369-.374a9.3,9.3,0,0,0-1.186-.188,7.047,7.047,0,0,0-.927-.051l-.812.028.81-.081a7.155,7.155,0,0,1,.936-.008,9.473,9.473,0,0,1,1.213.113c.444.056.913.18,1.415.292.487.157,1.017.287,1.532.509a16.467,16.467,0,0,1,1.584.7c.524.27,1.053.557,1.559.88l.756.49.72.531c.487.341.908.749,1.345,1.11.4.4.819.761,1.154,1.162a12.977,12.977,0,0,1,.947,1.131l.4.524c.116.181.225.352.329.513a8.127,8.127,0,0,1,.489.823,3.407,3.407,0,0,0,.319-.517c-3.574-6.015-8.084-9.157-13.41-9.328-.1,0-.2,0-.3,0A22.778,22.778,0,0,0,176.112,61.8c-.2.184-.4.364-.587.558A16.043,16.043,0,0,0,172.3,67Zm1.589,9.24c0-.115,0-.231.006-.346,0-.252,0-.5.012-.758-.122.031-.248.062-.365.093-.169.031-.325.064-.483.1,0,.208,0,.411-.008.611-.005.242-.011.477-.014.7,0,.277.005.535.006.783.277-.025.576-.055.89-.114C173.921,76.955,173.9,76.6,173.893,76.236Zm-1.542.451c-.058-.376-.109-.785-.153-1.211-.378.044-.717.095-.988.112l-.152,0c.091.682.194,1.32.306,1.917h.189l.524,0,.419-.042C172.447,77.225,172.4,76.967,172.351,76.687Zm1.886-.837c.005.125.012.249.015.372l.088,1c.328-.061.671-.119,1.026-.2,0-.016,0-.029-.005-.045q-.036-.433-.076-.9c-.01-.134-.011-.27-.011-.407,0-.184,0-.369,0-.559,0-.048,0-.1,0-.146,0-.071,0-.143,0-.215l-.22.068c-.286.088-.565.162-.837.231,0,.006,0,.013,0,.02C174.214,75.334,174.225,75.593,174.237,75.851Zm1.495-.951c0,.07,0,.141.006.211.006.154.007.306.01.456s.009.326.025.484q.048.438.093.845c.579-.151,1.189-.3,1.8-.523l.975-.322.983-.378c.61-.22,1.208-.495,1.813-.757l.17-.074c.532-.238,1.055-.495,1.574-.75l.323-.158.044-.022c.624-.338,1.255-.643,1.837-.989s1.156-.662,1.68-.994,1.015-.654,1.468-.952c.4-.277.762-.54,1.087-.784l.111-.082c.06-.05.119-.1.177-.143-.046-.091-.1-.183-.146-.274s-.094-.178-.144-.269a11.216,11.216,0,0,0-.7-1.12c-.039-.051-.082-.1-.121-.151q-.164-.211-.337-.42c-.051-.062-.1-.125-.15-.186l-.2.2-.091.092c-.2.2-.462.41-.753.669s-.651.51-1.027.807-.817.573-1.27.883c-.468.285-.947.613-1.471.9s-1.057.607-1.617.894c-.552.3-1.134.568-1.708.851-.582.262-1.164.532-1.748.768s-1.159.471-1.728.665c-.329.125-.655.231-.976.333C175.723,74.71,175.729,74.8,175.731,74.9ZM174.4,77.728c.033.227.067.459.1.673.041.336.124.641.178.927s.1.546.176.78l.1.378c.345-.088.674-.181.992-.277l-.119-.468-.136-.535c-.042-.2-.074-.421-.115-.654-.051-.321-.112-.677-.161-1.05C175.07,77.591,174.73,77.658,174.4,77.728Zm1.711.707c.045.223.079.432.125.625l.15.531c.046.165.087.311.123.437a21.4,21.4,0,0,0,2.667-1.073,12.948,12.948,0,0,0,2.263-1.341l.149-.09q2.628-1.109,4.907-2.109,2.463-1.079,4.547-2.042L191,73.167l-.075-.34c-1.764.8-2.971,1.272-2.971,1.272l2.42-1.891c.1-.115.188-.229.283-.344l-.094-.3a8.666,8.666,0,0,0-.4-1.03,5.493,5.493,0,0,0-.233-.519c-.056.048-.107.089-.165.14l-.177.138c-.3.239-.633.492-1,.762-.445.31-.92.66-1.446.993s-1.076.693-1.66,1.042-1.2.685-1.819,1.042c-.633.33-1.274.672-1.928.985-.444.2-.885.411-1.329.61-.215.1-.429.2-.647.28l-.982.407-.978.352c-.636.244-1.272.421-1.874.594C175.984,77.745,176.057,78.11,176.116,78.436Zm17.662-6.354c-.04-.159-.087-.341-.14-.548-.775.389-1.515.743-2.19,1.055.043.162.083.313.117.441l.025.093Q192.742,72.585,193.778,72.082Zm-22.3,6.009c.236,1.156.5,2.136.747,2.939.775-.115,1.5-.254,2.18-.413-.025-.116-.053-.239-.083-.376-.059-.232-.09-.513-.142-.81s-.113-.621-.138-.964c-.02-.206-.04-.429-.062-.647-.323.067-.639.105-.932.14,0,.336,0,.638.01.887,0,.539,0,.849,0,.849s-.092-.3-.233-.817c-.06-.241-.147-.531-.215-.864l-.528.064-.524.01ZM179.7,84.7c1.024-.479,1.915-.9,2.542-1.173,2.944-1.3,7.675-3.311,7.722-3.331l.138-.04a69.3,69.3,0,0,0,11.057-3.319c.137-.1.514-.362,1.031-.743.237-.175.5-.371.789-.59a1.646,1.646,0,0,1,.212-.162c2.05-1.572,5-4.028,5.938-5.811a1.13,1.13,0,0,0,.065-1.062,4.356,4.356,0,0,0-2.117-1.67c-1.264,2.191-5.046,5.568-11.275,9.139-1.259.722-2.61,1.451-4.07,2.181-.539.243-12.537,5.634-18.583,6.655a10.656,10.656,0,0,1-1.676,2.391,11.435,11.435,0,0,0-1.063,1.391C171.925,88.341,177.106,85.915,179.7,84.7Zm.544,10.117c-.19-.45-.414-.913-.645-1.386-.972-2-2.046-4.225-1.259-6.765l-.615.283A9.928,9.928,0,0,0,180.241,94.82Zm-55.026,94.346a7.391,7.391,0,0,0,.148-2.33c-.221-.2-.435-.406-.624-.6-.714-.743-1.695-2.371-.24-4.917a3.367,3.367,0,0,0,.326-.876c.078-.321.131-.659.183-.993.009-.058.018-.117.028-.177-1.908.268-2.955.55-3.107.838a47.226,47.226,0,0,0-.133,5.686c.02.174.534.6.81.827a4.483,4.483,0,0,1,1.078,1.114c.056.1.119.214.185.337.691,1.279,1.007,1.542,1.146,1.562A1.221,1.221,0,0,0,125.215,189.166Zm2.489-2.745.037-.031-.037.031-.016.013.015-.013c.222-.2.444-.4.665-.6-.074-.145-.143-.29-.209-.443a5.911,5.911,0,0,1-.292-.838,3.615,3.615,0,0,1-.122-.933c0-.247-.016-.509-.031-.769-.062-1.046-.155-2.1-.253-3.156l-.067-.693-.009-.1c-.025-.265-.06-.507-.068-.857q0-.118.014-.24c-.791.03-.929.565-1.127,1.842a6.561,6.561,0,0,1-.655,2.282c-.811,1.42-.79,2.59.063,3.478a19.607,19.607,0,0,0,1.642,1.467A2.3,2.3,0,0,1,127.7,186.421Zm2.26,1.276a8.406,8.406,0,0,0,1.678-.608c.6-.274,1.134-.546,1.689-.852.352-.195.691-.4,1.024-.62.184-.12.369-.238.549-.367.256-.18.509-.377.81-.574a5.558,5.558,0,0,1,.487-.283l.441-.219c.523-.275,1.1-.607,1.65-.925l1.664-.979,1.659-1,.207-.124.161-.113.4-.276c.222-.191.4-.358.611-.559a10.845,10.845,0,0,0,1.122-1.427,17.107,17.107,0,0,0,.941-1.614c.584-1.114,1.055-2.3,1.547-3.478l.388-.883.415-.879a12.214,12.214,0,0,1,.99-1.714c-.062.665-.15,1.311-.271,1.954-.045.232-.1.463-.152.693a25.239,25.239,0,0,1,1.924-1.875c1.343-1.131,7.882-10.429,9.563-13.027.61-.943,1.485-2.517,2.412-4.185,1.99-3.582,3.353-5.978,4.144-6.62a19.781,19.781,0,0,0,2.624-3.269c.321-.459.552-.791.7-.966.094-.114.433-.7.761-1.275a39.037,39.037,0,0,1,4.6-6.8c-.051-.093-.1-.188-.15-.279-.367-.658-.76-1.3-1.181-1.928-.2-.317-.418-.627-.645-.928s-.437-.614-.68-.9c-.052-.062-.1-.124-.154-.187-.185-.23-.367-.462-.562-.682l-.758-.829c-.257-.272-.537-.518-.8-.779a18.242,18.242,0,0,0-1.726-1.4l-.921-.614-.977-.507a6.673,6.673,0,0,0-1.011-.42l-.11-.041c-.123.125-.246.265-.369.407a19.812,19.812,0,0,0-2.254,3.442c-.568,1.053-1.111,2.182-1.612,3.293-.778,1.723-1.456,3.4-1.969,4.671-.413,1.023-.711,1.762-.91,2.16a14.674,14.674,0,0,1-2.062,3.063l-.082.075c-3.592,2.706-7.443,10.767-8.614,14.28-1.2,3.609-5.819,14.841-6.014,15.317l-.059.109-2.032,3.006c.075.041.154.078.226.125a5,5,0,0,1,1,.784,2.865,2.865,0,0,1,.656,1c0,.012.011.024.015.037-.017-.028-.039-.051-.057-.077a2.775,2.775,0,0,0-.807-.726h0a4.541,4.541,0,0,0-1.061-.466,5.656,5.656,0,0,0-.559-.144c-.186-.043-.381-.065-.568-.1-.317-.04-.635-.056-.952-.073-.178.079-.348.15-.524.216-.222.084-.445.161-.67.232a12.048,12.048,0,0,1-1.381.346,8.346,8.346,0,0,1-2.807.072,7.907,7.907,0,0,0-1.439.167,2.756,2.756,0,0,0-1.175.517,1.181,1.181,0,0,0-.415.954c0,.182.035.467.062.731l.077.8c.1,1.064.192,2.124.256,3.2.016.27.029.54.033.824a2.3,2.3,0,0,0,.083.643,4.711,4.711,0,0,0,.233.666c.012.028.026.056.039.083.17-.15.336-.3.512-.45a13.022,13.022,0,0,1,1.184-.9c.067-.045.145-.082.215-.125.151-.093.3-.188.464-.269.04-.021.086-.036.129-.055-.01-.039-.021-.079-.031-.119a1.833,1.833,0,0,1-.042-.436,2.307,2.307,0,0,1,.075-.458,3.4,3.4,0,0,1,.148-.426c.11-.27.232-.523.311-.786a2.949,2.949,0,0,0,.142-.8,3.264,3.264,0,0,0-.045-.734,3.908,3.908,0,0,0-.112-.522l-.052-.2.1.179a3.9,3.9,0,0,1,.246.489,3.545,3.545,0,0,1,.245.753,3.448,3.448,0,0,1,.073.935c-.013.323-.075.636-.109.9a2.256,2.256,0,0,0-.028.355,1.208,1.208,0,0,0,.026.256c.029.062.039.135.069.158s.02.045.073.114l.018.025a1.222,1.222,0,0,1,.125-.047,3.1,3.1,0,0,0,.51-.3,6.157,6.157,0,0,0,.947-.894c.143-.171.283-.348.418-.529s.25-.377.368-.573a4.32,4.32,0,0,0,.514-1.292,2.706,2.706,0,0,1,.046.733,4.047,4.047,0,0,1-.124.734,3.9,3.9,0,0,1-.151.469c-.03.08-.059.16-.091.239a5.517,5.517,0,0,1-.338.672,5.152,5.152,0,0,1-.954,1.205,3.654,3.654,0,0,1-.665.494,2.667,2.667,0,0,1-.426.173l-.379.1a1.741,1.741,0,0,0-.249.086c-.089.046-.177.081-.267.132a4.917,4.917,0,0,0-.539.335,11.942,11.942,0,0,0-1.049.849c-.687.613-1.358,1.282-2.056,1.936l-.022.021-.03.022a.857.857,0,0,0-.222.242.109.109,0,0,0,.039.02.338.338,0,0,0,.11.047A3.089,3.089,0,0,0,129.964,187.7Zm62.452-25.052c-1.361-.555-5.546,3.681-10.942,4.69,2.471-.5,4.639-4.084,3.53-4.337s-8.673,2.774-15.128,3.782c2.49-1.267,10.837-5.706,16.7-7.168.366-.091.723-.173,1.068-.239a77.366,77.366,0,0,1-12.791-2,1.216,1.216,0,0,1-.084.177,3.538,3.538,0,0,1-.554.79,7.352,7.352,0,0,1-.836.779,56.9,56.9,0,0,1-4.82,3.156c-.874.551-1.728,1.128-2.494,1.714a14.6,14.6,0,0,0-1.958,1.759,9.928,9.928,0,0,0-.666.815,6.968,6.968,0,0,0-.435.688,4.506,4.506,0,0,0-.235.47l-.079.169.066-.174a4.449,4.449,0,0,1,.2-.488,7.118,7.118,0,0,1,.388-.726,10.377,10.377,0,0,1,.615-.876,14.866,14.866,0,0,1,1.858-1.931c.734-.652,1.557-1.3,2.4-1.918,1.669-1.241,3.41-2.4,4.49-3.426a6.409,6.409,0,0,0,.667-.717,2.471,2.471,0,0,0,.338-.559c-1.015-.276-2.033-.58-3.042-.92a71.538,71.538,0,0,0-9.98,7.917,3.882,3.882,0,0,0-.379,1.972c.017-.017.032-.037.049-.054l.735-.749.766-.7c.5-.475,1.04-.882,1.54-1.3,1.032-.8,2.03-1.5,2.9-2.068l2.113-1.359c.256-.162.448-.3.579-.4l.2-.146-.195.156c-.126.1-.311.254-.558.43l-2.035,1.472c-.222.163-.453.337-.69.518-4.706,4.016-4.941,6.36-3.356,7.106a6.668,6.668,0,0,0-2.068,4.387l2.017-.2c-1.976.375-4.236.974-6.013,1.481-.035.136-.067.258-.1.376.906-.239,1.815-.447,2.728-.633,1.338-.27,2.673-.5,4.03-.687l2-1.924-1.243,2.842-.055.125-.364.129h0c-1.373.189-2.761.429-4.126.707a41.424,41.424,0,0,0-4.04,1.016,18.363,18.363,0,0,0-1.916.708,5.608,5.608,0,0,0-1.6.986,1.861,1.861,0,0,0-.415.711c-.063.157-.088.271-.135.409a2.324,2.324,0,0,0-.059.4.868.868,0,0,0,.15.594.842.842,0,0,0,.387.267c1.052-.409,2.11-.794,3.168-1.183,1.113-.414,2.235-.806,3.358-1.192l3.372-1.155c1.127-.379,2.26-.738,3.4-1.093.57-.178,1.139-.352,1.721-.512.28-.081.593-.166.878-.234s.58-.142.882-.207c.6-.134,1.184-.246,1.777-.351s1.183-.195,1.774-.283c1.183-.173,2.365-.33,3.55-.453l.084-.009c1.157-.123,2.312-.239,3.477-.315l.041,0h.005l4.387.179c1.462.087,2.925.149,4.387.26-1.462.112-2.925.173-4.387.261l-4.345.177-3.5.55c-1.166.2-2.332.39-3.489.61l-1.73.347c-.573.116-1.153.243-1.706.382-.277.066-.557.137-.846.22s-.547.155-.836.245l-1.682.533-6.746,2.228c-.487.163-.978.321-1.466.484-.636.212-1.272.428-1.911.631-.619.2-1.238.4-1.856.6a6.187,6.187,0,0,1,.349,1.126c.427-.113.855-.223,1.282-.34q1.341-.362,2.668-.771c.2-.063.405-.12.606-.185,1.082-.348,2.156-.724,3.209-1.152.525-.216,1.048-.439,1.565-.681l.759-.388.74-.437-.679.526-.715.486c-.488.3-.981.606-1.492.872-.856.453-1.733.866-2.617,1.261-.167.075-.333.154-.5.227-1.056.461-2.126.887-3.2,1.3l-.556.208.068.287c.06.291.169.6.275.971s.273.78.431,1.233c.086.224.2.447.3.683a5.994,5.994,0,0,0,.356.715,11.5,11.5,0,0,0,2.115,2.871,7.239,7.239,0,0,0,.7.654,8.181,8.181,0,0,0,.749.614c.262.189.52.387.787.57l.824.507c.551.328,1.122.608,1.673.877.567.234,1.1.507,1.637.684s1.028.4,1.5.527l1.292.393,1.01.257.882.222-.893-.171-1.026-.2-1.317-.32c-.487-.1-1-.287-1.545-.443s-1.106-.392-1.7-.6c-.576-.241-1.173-.493-1.759-.8l-.878-.474c-.287-.172-.565-.362-.849-.543a8.619,8.619,0,0,1-.817-.6,7.571,7.571,0,0,1-.772-.646,14.524,14.524,0,0,1-1.365-1.416,14.816,14.816,0,0,1-1.06-1.511,6.768,6.768,0,0,1-.425-.742c-.125-.246-.258-.479-.364-.712-.2-.472-.407-.891-.536-1.292s-.279-.746-.351-1.019c-.022-.073-.039-.129-.058-.193-.366.122-.736.228-1.108.325a11.8,11.8,0,0,0,.409,1.789l.179.558.224.54a11.569,11.569,0,0,0,.509,1.052,13.5,13.5,0,0,0,1.328,1.927,13.085,13.085,0,0,0,1.65,1.681,15.583,15.583,0,0,0,1.907,1.408A17.347,17.347,0,0,0,160.8,194.2c.767.35,1.473.606,2.258.9l2.319.838,4.672,1.641c1.553.565,3.109,1.127,4.647,1.741,1.545.6,3.064,1.264,4.572,1.957.749.36,1.5.719,2.214,1.149a8.987,8.987,0,0,1,2.014,1.461,7.5,7.5,0,0,0-1.048-.648,10.839,10.839,0,0,0-1.112-.525c-.41-.18-.827-.344-1.246-.5-.593.565,4.917,4.795,9.986,6.67,5.975,4.236,11.572,7.79,14.825,6.429,5.446,3.4,6.127,8.471,3.177,10.891a2.413,2.413,0,0,0,2.6-1.524l.049-.216-.019.136a4.013,4.013,0,0,0,.246-1.422c2.874,7.186-9.757,8.623-11.724,11.27a8.592,8.592,0,0,0-1.479,4.584l.075,1.389.006.109-.078,0c.018.264.039.421.039.421-3.4-.151-4.614,4.16-5.219,8.547-.413,3,.761,4.3,1.547,4.823l.842-.547.538-2.18.028-.112.075-.047,1.285-.809,1.134-.713,1.661-1.044-1.649,1.3-1.1.863-.951.748-.317,2.306-.018.132-.134.106-3.436,2.716c.132.177.27.349.418.516a7.025,7.025,0,0,0,2.2,1.672c.406-.017.81-.04,1.212-.066h0l1.006-.294c.359-.14.751-.3,1.156-.483a7.936,7.936,0,0,0,1.172-.741,6.842,6.842,0,0,0,1.082-1.016l.459-.62c.14-.218.259-.452.391-.678a6.706,6.706,0,0,0,.331-.718,6.087,6.087,0,0,0,.276-.741c.18-.494.293-1.005.421-1.495.217-.989.378-1.927.505-2.734.184-1.172.333-2.053.4-2.45.025-.15.041-.237.041-.237s-.011.1-.028.277c-.043.417-.128,1.284-.227,2.434-.071.814-.166,1.765-.317,2.784-.095.506-.174,1.035-.325,1.561a10.088,10.088,0,0,1-.532,1.579c-.124.253-.235.514-.372.762l-.456.715a7.586,7.586,0,0,1-1.124,1.216,3.815,3.815,0,0,1-.464.384c.29-.074.576-.155.855-.253a7.477,7.477,0,0,0,1.328-.6,5.261,5.261,0,0,0,1.1-.844,4.6,4.6,0,0,0,1.217-2.4h0l.028-.2.126-.147c5.145-5.99,10.354-11.923,15.53-17.886l.019-.022.025-.025a40.66,40.66,0,0,0,3.079-3.312,27.232,27.232,0,0,0,2.583-3.654,17.247,17.247,0,0,0,1.752-4.027,11.04,11.04,0,0,0,.376-4.252,9.818,9.818,0,0,0-1.42-4c-.75-1.3-1.576-2.6-2.407-3.877q-2.5-3.846-5.175-7.59c-1.783-2.487-3.612-4.95-5.565-7.275-.492-.575-.988-1.148-1.5-1.683-.258-.266-.524-.529-.771-.751-.121-.116-.289-.243-.432-.363l-.444-.356c-1.223-.994-2.368-2.023-3.513-3.06-2.283-2.077-4.52-4.193-6.749-6.317l-.448-.428a2.134,2.134,0,0,1-.327.226,2.588,2.588,0,0,1-.429.223,4.032,4.032,0,0,1-1.092.3,6.546,6.546,0,0,1-1.86-.068c-.253-.041-.506-.09-.76-.151-.908-.213-1.831-.521-2.748-.818s-1.831-.588-2.7-.794a11.753,11.753,0,0,0-2.418-.345,7.346,7.346,0,0,0-1.727.141c-.208.034-.364.092-.475.117l-.167.045.163-.058c.108-.033.261-.1.466-.155a7.464,7.464,0,0,1,1.737-.28,12.028,12.028,0,0,1,2.493.158c.9.14,1.855.36,2.794.587l.2.049c.87.209,1.732.416,2.538.54a6.585,6.585,0,0,0,2.294.025,2.971,2.971,0,0,0,.785-.288,1.623,1.623,0,0,0,.287-.18,1.013,1.013,0,0,0,.1-.083c-.537-.513-1.069-1.032-1.588-1.562-.033.016-.063.031-.1.044a2.217,2.217,0,0,1-1.182.008c-.221-.047-.46-.109-.71-.18-.653-.184-1.406-.434-2.279-.686a29.172,29.172,0,0,0-4.168-.9c-.774-.1-1.578-.184-2.4-.208s-1.656-.02-2.492.017c-.834.055-1.669.135-2.485.261-.532.079-1.051.177-1.564.283-.275.056-.551.112-.819.175-.768.177-1.5.387-2.2.6-.686.229-1.343.429-1.93.665s-1.134.433-1.6.643-.887.378-1.218.542l-1.051.5,1.028-.544c.234-.129.521-.271.831-.421l.364-.176c.462-.231.994-.467,1.58-.716s1.23-.493,1.912-.756c.689-.241,1.42-.486,2.189-.7s1.57-.412,2.4-.573,1.671-.284,2.521-.378c.852-.077,1.708-.135,2.552-.132.845-.013,1.676.04,2.479.1.455.042.9.1,1.33.159,1.094.155,2.112.362,3.006.58,1.245.3,2.274.608,2.934.714.02,0,.037,0,.057.007a20.362,20.362,0,0,1-2.285-3.018,20.845,20.845,0,0,1,2.068,1.381c.114-.223.227-.444.33-.672l-2.373-2.669c-.443.192-.884.369-1.337.531a12.927,12.927,0,0,1-1.747.5,5.284,5.284,0,0,1-.827.1c-.036,0-.071.007-.108.008a1.683,1.683,0,0,1-1.025-.25c-.14-.085-.242-.186-.361-.258s-.207-.123-.341-.18c-.041-.02-.087-.035-.13-.054q-.325-.145-.663-.273c-.053-.018-.108-.032-.161-.049a29.124,29.124,0,0,0-3.212-.888c-.572-.128-1.148-.237-1.726-.333a11.154,11.154,0,0,0-1.749-.176,11.23,11.23,0,0,1,1.764.059c.586.059,1.172.129,1.755.22a28.966,28.966,0,0,1,3.474.723c.287.087.573.176.859.289.039.013.081.035.122.052.108.048.22.1.327.155.137.073.254.173.372.23a1.146,1.146,0,0,0,.67.09,4.524,4.524,0,0,0,.8-.152,12.118,12.118,0,0,0,1.606-.578c.525-.228,1.053-.481,1.55-.748l.293-.158.257.253,2.387,2.352a8.731,8.731,0,0,0,.254-.9,2.953,2.953,0,0,0,.048-1.017l-.119-.607c-.021-.241-.051-.509-.056-.729-.013-.439-.01-.871,0-1.3.029-.855.083-1.7.158-2.545.013-.146.032-.291.046-.436l-.654.252-.163.063-.133-.026-3.356-.649-.346.008-10.889.257,11.076-1.078.169-.016.029,0,.06.007.7.083-.148-.285-.281-.084a8.319,8.319,0,0,0-.831-.222c-.459-.082-.908-.2-1.378-.246s-.931-.131-1.405-.152-.944-.077-1.421-.079-.951-.036-1.428-.024-.955,0-1.433.019c-.956.026-1.913.077-2.87.135-1.345.089-2.692.2-4.038.326-.57.051-1.139.1-1.708.154-.771.068-1.543.138-2.315.2-1.147.095-2.294.176-3.444.206,1.919-.145,3.822-.424,5.727-.688s3.811-.54,5.728-.761c.959-.106,1.919-.2,2.884-.277.482-.043.966-.06,1.45-.091s.97-.032,1.456-.047c.216-.009.433-.007.65,0l.124-1.373.036-.393.33-.065c1.235-.243,2.48-.536,3.695-.9.091-.028.181-.059.272-.087.148-.285-.032-.461-.921-.41C191.611,164.611,193.728,163.8,192.417,162.644Zm-1.714,4.438c0-.318.548-.792,1.052-1.241q-1.267.527-2.571.973l.039,1.051c.378.015.756.046,1.134.073a8.647,8.647,0,0,1,.967.113A1.3,1.3,0,0,1,190.7,167.082Zm53.138,23.985-17.521-.22c-.311.627-.626,1.287-.944,1.987h18.531l.266.024a36.1,36.1,0,0,1,8.447,1.991c.21-.38.43-.744.65-1.11.4-.662.805-1.31,1.232-1.926-.958-.479-1.922-.944-2.9-1.374-.51-.232-1.024-.456-1.543-.665l-.014-.006c-.512-.214-1.021-.435-1.541-.627s-1.039-.413-1.569-.587c-.1-.032-.191-.066-.287-.1C244.358,188.282,242.229,189.025,243.841,191.066Zm35.574,47.9c-.076-.047-.153-.095-.233-.15-.468-.308-1.023-.627-1.57-1.03-.281-.23-.586-.458-.9-.7-.316.327-.65.67-1.009,1.03a23.236,23.236,0,0,0,2.221,1.513,91.309,91.309,0,0,1-16.641,12.3c-.382-.615-.864-1.422-1.4-2.381-.468.181-.937.349-1.4.491.58,1.089,1.215,2.186,1.884,3.287.134.22.258.438.4.658a93.87,93.87,0,0,0,19.4-14.618C279.938,239.253,279.689,239.13,279.415,238.962ZM200.283,262.79a2.864,2.864,0,0,0,2.441-1.439,2.628,2.628,0,0,0,.143-1.518c-.022.042-.039.085-.064.126-.441.7-1.434,1.092-3.218,1.262-.327.024-.65.035-.965.035a10.477,10.477,0,0,1-3.772-.662l-.226.06-.037-.16a8.223,8.223,0,0,1-2.993-2.137,10.6,10.6,0,0,1-2.38-5.174H189.2l0-.016a15.791,15.791,0,0,1-.084-4.93,1.4,1.4,0,0,0-1.172.458c-.755.8-1.212,2.778-.014,5.749C189.759,258.962,194.292,263.3,200.283,262.79Zm-14.937-11.064c.212-.253.418-.5.648-.752,0-.089.01-.171.015-.258H161.725q.253.962.528,1.932l22.207.227c.055-.074.108-.151.165-.225C184.857,252.338,185.1,252.031,185.346,251.726Zm-2.075,2.824q.323-.472.653-.941l-21.333.219c.059.2.124.4.185.6l17.732-.281s-.211.868,1.858,1.816C182.663,255.49,182.959,255.015,183.271,254.55ZM167.3,259.744s5.355-.017,12.957-.163c.186-.342.367-.687.56-1.025-6.673.163-13.642.334-16.551.4q.431,1.221.9,2.451H179.28c.147-.291.293-.58.449-.866.14-.269.292-.531.436-.8Zm-4.719,1.664a105.955,105.955,0,0,1-5.045-55.53A103.519,103.519,0,0,1,160,195.34a15.823,15.823,0,0,1-1.905-1.021c-.27.814-.5,1.56-.82,2.635l-.558-.166-3.648-1.084c.528-1.778.826-2.7,1.42-4.4-.089-.1-.183-.2-.269-.3l-3.806-1.336c.492-1.4.817-2.286,1.259-3.406a10.653,10.653,0,0,1-.346-1.671l-2.007-.817H147.1c-2.037,4.043-16.494,35.268-1.187,77.632h.962c-.185-.5-.378-1.041-.6-1.688,1.658-.581,2.487-.871,4.139-1.452.455,1.291.767,2.143,1.16,3.14h4.512l.179-.073c.01.025.02.047.029.073Zm-19.238,0c-1.293-3.656-2.365-7.224-3.249-10.692h-3.637l.485,1.192c.652,1.613,1.01,2.542,1.01,2.542s-.495-.864-1.334-2.388l-.692-1.264c-.014-.026-.026-.056-.039-.082h-3.157a84.468,84.468,0,0,0,5.331,10.581,6.881,6.881,0,0,0,1.216.112ZM62.908,221.13l1.255-.085a33.4,33.4,0,0,1,1.276-7.742,13.55,13.55,0,0,0,1.973,7.524l22.74-1.531-16.04-.547,17.58-.6c.372-3.1-2.795-4.789-5.455-5.655a21.027,21.027,0,0,0-3.452-.806h20.371a34.094,34.094,0,0,0-1.238,6.814l1.272-.086c.007-.087.009-.174.018-.261.05-.585.1-1.17.151-1.752s.154-1.158.228-1.733c.134-1.153.386-2.268.605-3.354.017-.1.043-.189.063-.284H64.808c-.258.81-.5,1.652-.713,2.52A42.255,42.255,0,0,0,62.908,221.13ZM77.889,198.8l-.543.018.874.873h.489Zm31.444,4.673h3.136c.386-.714.767-1.374,1.13-1.966h-3l-.8,1.256C109.661,202.974,109.5,203.212,109.333,203.471Zm-.077,7.563H106c-.074.228-.146.458-.2.7-.278,1.028-.593,2.087-.794,3.193-.108.551-.247,1.1-.331,1.665s-.172,1.129-.257,1.695c0,.018,0,.036-.007.054l3.236-.218A42.649,42.649,0,0,1,109.256,211.034ZM84.806,221.06l-16.585.854-3.185.163,3.55.239L101,224.5l.841.057,1.312.088.789.054,1.487.1-1.485-.172-.8-.093-1.316-.152-.981-.114-12.365-1.435,7.8-1.268,1.679-.272,1.333-.216,2.5-.405,1.3-.212,1.084-.176,2-.325-1.978.1-1.095.056-1.3.067-2.514.129-2.709.139Zm-21.977,3.433a42.744,42.744,0,0,0,2.9,14.8l44.1-.856a42.667,42.667,0,0,1-2.436-11.017l-3.437-.226c.01.309.02.623.028.924.066.988.109,1.926.21,2.786q.071.647.135,1.236.086.586.163,1.11c.092.7.226,1.3.319,1.8s.208.879.265,1.145.1.4.1.4l-.126-.4c-.075-.261-.219-.635-.34-1.128-.087-.344-.2-.74-.305-1.182-.046-.191-.091-.388-.133-.6l-.236-1.1c-.068-.391-.141-.8-.216-1.233-.159-.859-.264-1.8-.395-2.792-.03-.327-.064-.67-.1-1.009l-20.4-1.342-9.408-.619a19.087,19.087,0,0,0,6.95.512s-1.916,10.589,17.044,11.6l-30.961.2a45.092,45.092,0,0,1-2.4-12.928Zm68.721,2.134c0,.054,0,.108.008.161q.091,1.461.181,2.908c.066.963.209,1.909.3,2.852q.076.705.152,1.4c.052.464.148.918.219,1.372q.227,1.361.445,2.674c.167.87.374,1.711.552,2.537.294,1.477.7,2.842,1.06,4.131h1.621c-.118-.423-.241-.885-.382-1.391-.242-.841-.467-1.8-.722-2.849s-.48-2.192-.748-3.4c-.215-1.215-.486-2.493-.673-3.829q-.149-1-.3-2.033l-.028-.237-.223-1.856c-.095-.7-.14-1.417-.207-2.133s-.136-1.434-.163-2.156-.075-1.442-.113-2.16q-.019-1.08-.038-2.148c-.022-.712-.009-1.419.01-2.117s.02-1.389.056-2.068c.093-1.355.139-2.671.295-3.911q.1-.932.192-1.81l.255-1.684c.144-1.08.35-2.073.533-2.954.089-.44.173-.853.25-1.234l.245-.972h-.683c-.063.313-.125.628-.189.951-.151.783-.337,1.585-.49,2.417-.255,1.673-.589,3.425-.786,5.258-.1.916-.262,1.84-.31,2.788q-.1,1.418-.23,2.863c-.062.963-.075,1.938-.115,2.914-.013.488-.044.977-.042,1.467l.025,1.47C131.524,224.778,131.489,225.706,131.55,226.627Zm1.859-36.523c.036-.011.081-.026.123-.143.115-.324-.554-1.024-1.327-1.569a10.867,10.867,0,0,1-1.6.583C132.523,190.163,133.2,190.173,133.409,190.1Zm37.036-45.626,4.538-7.828.417-.452c-.034-.072-.069-.145-.1-.218a42.339,42.339,0,0,0-4.143,6.261,12.99,12.99,0,0,1-.892,1.459c-.1.114-.3.4-.535.738a17.529,17.529,0,0,1,1.108,1.82c.434.458,2.471,2.76,1.759,4.774l.348.093c1.55-2.992-1.967-5.739-1.967-5.739Zm85.876,64.057c-1.012-.554-2.031-1.08-3.05-1.57-.139.508-.271,1.026-.4,1.553.079.036.16.068.239.1q1.479.7,2.917,1.469C256.118,209.568,256.214,209.048,256.32,208.536Zm-3.591.575a55.877,55.877,0,0,0-1.151,7.05,58.475,58.475,0,0,0,.88,17.141,60.024,60.024,0,0,0,3.4,11.184,11.28,11.28,0,0,0,1.307-.367,51.346,51.346,0,0,1-3.234-9.528,31.849,31.849,0,0,1-.8-6.362c0-.235-.011-.471-.008-.706,0,0,.268,9.209,5.85,15.847a27.988,27.988,0,0,0,3.113-1.774,15.858,15.858,0,0,1-.089-2.88s7.564-.908,7.261-9.783a13.686,13.686,0,0,0,2.251,4.82q.576-.576,1.113-1.139c-.266-.345-.456-.747-.689-1.12a10.121,10.121,0,0,1-.632-1.176c-.186-.405-.386-.8-.559-1.211l-.452-1.241a12.479,12.479,0,0,1-.361-1.245,9.278,9.278,0,0,1-.278-1.232c-.067-.409-.147-.809-.2-1.2-.032-.4-.063-.786-.094-1.163a9.1,9.1,0,0,1-.021-1.1c.012-.356-.007-.7.028-1.027s.068-.641.1-.94q.024-.223.047-.434l.084-.405a13.161,13.161,0,0,1,.308-1.344l.055-.174c-.426-.341-.871-.687-1.324-1.034-.128-.1-.259-.2-.39-.3-2.3-1.736-4.921-3.529-7.848-5.35l-.14-.088q-.543-.337-1.1-.669c-.141.488-.27.99-.4,1.49.377.227.749.462,1.122.7.715.448,1.424.9,2.121,1.379a63.213,63.213,0,0,1,5.309,4l.132.109c-.044-.035-.091-.067-.136-.1-1.753-1.355-3.588-2.6-5.451-3.788-.687-.434-1.383-.852-2.083-1.262-.372-.218-.742-.436-1.118-.647-.025.1-.054.2-.08.3-.329,1.442-.643,2.921-.851,4.421a54.349,54.349,0,0,0-.583,7.559c0,.451-.014.905-.008,1.348a49.181,49.181,0,0,0,.71,7.805c.191,1.136.434,2.164.662,3.074l.363,1.262.352,1.059c.239.63.428,1.127.584,1.454l.226.509-.275-.484c-.188-.312-.425-.79-.727-1.4-.139-.311-.292-.655-.458-1.03s-.315-.795-.49-1.236c-.319-.894-.668-1.91-.974-3.041a50.2,50.2,0,0,1-1.5-7.874,57.14,57.14,0,0,1-.291-9.2c0-.013,0-.026,0-.039.063-1.583.239-3.161.437-4.716q.092-.612.19-1.218Q254.356,209.805,252.729,209.111Zm6.53,44.719c-.7-1.161-1.37-2.32-1.976-3.469a14.543,14.543,0,0,1-1.589.267c.555,1,1.141,1.977,1.761,2.914,0,0-.748.408-1.934,1.013.095.241.2.486.3.729.151.369.3.738.453,1.108q1.737-.87,3.438-1.806C259.554,254.334,259.412,254.083,259.259,253.83Zm-62.246,6.09a11.182,11.182,0,0,0,2.471.1c1.714-.164,2.174-.509,2.293-.7a.468.468,0,0,0,.056-.217,7.614,7.614,0,0,1-1.34.453,11.218,11.218,0,0,1-3.143.238l-.062.03Zm22.148-2.232c1.53-.162,2.956-.336,4.25-.524q-1.218-3.285-2.17-6.448H208.812q-1.069,1.194-2.138,2.387l13.266.136-13.512.139c-.46.511-.916,1.026-1.377,1.536a5.163,5.163,0,0,1-.414,1.553c-.01.023-.024.044-.034.067a4.976,4.976,0,0,1-1.019,1.423c-.022.021-.048.036-.07.058a5.917,5.917,0,0,1,.333.788C209.374,258.523,214.707,258.159,219.162,257.688Zm-.568-17.924q-2.185,2.451-4.368,4.9h5.389Q219.026,242.168,218.594,239.764Zm8.91,16.652c9.668,0,11.993-2.8,9.995-5.7H223.137q.927,3.02,2.1,6.158C226.071,256.729,226.832,256.577,227.5,256.416Zm13.555-11.751h.744c2.452-2.383,4.848-6.154,5.724-12.048A72.786,72.786,0,0,1,247,213.455a57.444,57.444,0,0,1,1.015-6.068c-.507-.151-1.016-.293-1.528-.424a31.958,31.958,0,0,0-3.278-.62c-3.224.029-6.449.087-9.673.092l-9.7.018-2.911.005c.318.448.639.894.954,1.344l16.116.157a108.309,108.309,0,0,0-14.441,2.293c.153.226.306.451.457.677.3.445.6.882.9,1.33.037.058.074.117.111.174.8,1.243,1.593,2.489,2.338,3.792a12.189,12.189,0,0,1,1.275,2.914,10.117,10.117,0,0,1,.34,1.72c.041.342.061.685.069,1.028a11.753,11.753,0,0,1-.031,1.184,13.819,13.819,0,0,1-.474,2.669,18.86,18.86,0,0,1-1.924,4.408,28.831,28.831,0,0,1-2.744,3.865,42.376,42.376,0,0,1-3.178,3.4l-.547.615c.358,2.155.8,4.364,1.344,6.636Zm7.391-23.946a81.319,81.319,0,0,0,2.018,17.488c.654,2.033,1.441,4.233,2.368,6.457h1.491c.095,0,.194-.009.291-.013a60.45,60.45,0,0,1-4.5-21.231,59.165,59.165,0,0,1,.254-7.378,56.833,56.833,0,0,1,1.252-7.386c-.629-.252-1.261-.5-1.9-.721A60.772,60.772,0,0,0,248.45,220.72Zm23.947-1.057c-.739-.661-1.532-1.333-2.385-2.019l-.037.148a13.053,13.053,0,0,0-.218,1.35l-.057.4q-.009.211-.018.432l-.038.929c-.014.323.027.661.039,1.008a8.847,8.847,0,0,0,.091,1.073q.08.548.165,1.124c.075.38.179.763.269,1.154a8.962,8.962,0,0,0,.346,1.172,11.966,11.966,0,0,0,.425,1.175l.51,1.161c.192.379.408.747.609,1.12a9.551,9.551,0,0,0,.674,1.078c.2.283.384.578.6.849.5-.535.958-1.054,1.383-1.548a17.512,17.512,0,0,1-2.419-8.281A17.758,17.758,0,0,1,272.4,219.663Zm-20.21-13.2q-.963-.438-1.917-.823c-.142.539-.279,1.085-.406,1.642l.078.026q.923.35,1.829.733C251.9,207.514,252.041,206.987,252.188,206.459Zm-30.7-2.734c-.033.123-.065.247-.1.369-.04.15-.081.3-.12.452-.047.181-.091.368-.136.553l-.052.21,2.751.019,9.7.069c3.233.022,6.467.1,9.7.143h.032l.021,0a32.7,32.7,0,0,1,3.379.707c.5.139,1,.291,1.5.449q.2-.857.429-1.7a24.475,24.475,0,0,0-5.248-1.28Zm-1.878,0h-.657l.246.334.242.329c.026-.107.052-.218.079-.323l.016-.063C219.564,203.908,219.589,203.818,219.613,203.725Zm-59.77,3.375a103.75,103.75,0,0,0-1.4,21.786c.053,1.287.125,2.588.231,3.913a102.123,102.123,0,0,0,1.65,11.867H189.8c.039-.139.075-.279.115-.418a28.812,28.812,0,0,1,1.292-3.5c.124-.294.258-.552.391-.829a9.173,9.173,0,0,1,.477-.848c.321-.531.655-1.047,1-1.558.691-1.018,1.407-2.019,2.178-2.978.06-.079.125-.154.186-.232.242-.306.491-.605.742-.9.081-.1.163-.192.243-.289.348-.415.719-.81,1.085-1.21.049-.055.1-.108.149-.163l.085-.086,1.215-1.229.507-.467.855-.786.1-.085c.441-.368.874-.744,1.326-1.1.5-.366.99-.741,1.5-1.1l1.561-1.008,1.536-.855a1.9,1.9,0,0,0,.194-.23,2.759,2.759,0,0,0,.218-.338,3.026,3.026,0,0,0,.184-.372l-.024,0c.1-.779-.845-2.027-3-3.51a38.752,38.752,0,0,0-6.6-3.481c-6,2.7-7.672,7.279-1.871,13.659,0,0-25.2-2.945-29.146,9.486a11.252,11.252,0,0,0-.5,2.868s-.262-1.133-.615-3.035c-1.232-6.646-3.569-22.7.313-32.817l15.437.15q-.962-.653-1.938-1.32c-1.215-.022-2.431-.043-3.647-.078-3.233-.083-6.466-.149-9.7-.265,3.234-.1,6.467-.148,9.7-.215.921-.022,1.842-.031,2.762-.045l-1.011-.691-.188-.128-.707-.483-.662-.452H163.552c-.167.745-.33,1.5-.5,2.254-.317,1.855-.689,3.735-.9,5.64-.284,1.9-.4,3.81-.576,5.69q-.067,1.415-.133,2.8c-.056.925-.069,1.839-.069,2.739s-.011,1.785-.016,2.652q.039,1.3.075,2.539c.022,1.652.169,3.208.253,4.648s.257,2.752.359,3.92c.027.3.056.591.087.871.089.806.189,1.524.274,2.144.225,1.669.354,2.623.354,2.623s-.157-.95-.431-2.611c-.139-.832-.312-1.84-.45-3.006-.047-.4-.1-.826-.165-1.261-.113-.828-.234-1.709-.311-2.653-.126-1.44-.319-3-.391-4.653l0-.051q-.072-1.217-.148-2.5c-.02-.87-.041-1.76-.062-2.664s-.041-1.825-.012-2.757.033-1.875.051-2.826c.12-1.9.182-3.833.411-5.755.083-1.034.215-2.061.359-3.083.125-.887.26-1.77.383-2.647.136-.691.265-1.377.395-2.06h-1.913C160.25,204.81,160.041,205.942,159.843,207.1Zm-25.689,24.267c.056.584.112,1.164.166,1.733.115,1.335.317,2.613.466,3.833.2,1.211.352,2.365.565,3.417s.373,2.023.569,2.873c.117.525.218,1.005.315,1.443h2.481a112.129,112.129,0,0,1-2.182-24.089,102.793,102.793,0,0,1,1.47-15.631q.107-.619.22-1.221h-1.481l-.186.6-.306.99-.295,1.15c-.215.819-.46,1.745-.656,2.789q-.16.778-.333,1.617-.135.846-.278,1.747c-.216,1.2-.327,2.475-.489,3.794-.07.661-.105,1.336-.161,2.018s-.1,1.374-.12,2.073-.049,1.4-.074,2.111q0,1.063,0,2.131c-.012.712.028,1.423.048,2.132s.036,1.416.093,2.115.093,1.4.139,2.082Zm-.6-40.057c-.22.488-.443.994-.666,1.523h8.038a71.2,71.2,0,0,1,3.473-9.056h-4.153l-1.216.729c-.567.334-1.107.653-1.726.984l-.026.013-.4.2a3.965,3.965,0,0,0-.349.207l-.377.262c-.468.823-1.005,1.82-1.579,2.98a1.553,1.553,0,0,1,.1,1.21,1.379,1.379,0,0,1-.89.891A1.607,1.607,0,0,1,133.551,191.31Zm36.617-39.7a1.855,1.855,0,0,1,1.183-.76c.822-1.47-1.424-3.788-1.447-3.811l-.075-.075-.045-.1a12.6,12.6,0,0,0-.8-1.367,14.72,14.72,0,0,1-2.2,2.587c-.668.543-2.432,3.718-3.849,6.269-.937,1.687-1.822,3.279-2.454,4.256-1.387,2.143-8.219,11.964-9.8,13.295a42.761,42.761,0,0,0-3.56,3.712l0,0q-.414,1.072-.916,2.119a18.34,18.34,0,0,1-.968,1.761A12.082,12.082,0,0,1,144,181.145c-.245.258-.54.533-.806.763l-.073.054h9.129c-.031-.082-.064-.161-.1-.235-.125.039-.249.081-.374.12l-.161.049-.128-.022h-.007a2.19,2.19,0,0,1-.7-.26,1.92,1.92,0,0,1-.573-.493,2.072,2.072,0,0,1-.409-1.394,3.475,3.475,0,0,1,.093-.643c.059-.2.127-.425.2-.594l.105-.243.052-.121.013-.031.02-.042.012-.02.046-.078a2.735,2.735,0,0,1,.418-.551,6.438,6.438,0,0,1,1.848-1.188c-.041-3.85,2.477-11.192,17.539-21.16a2,2,0,0,0,0-1.642A2.272,2.272,0,0,1,170.168,151.609ZM153.82,175.718q.472-.171.947-.321l.1-.031.119-.369c-.464.139-.851.257-1.151.35C153.826,175.471,153.825,175.595,153.82,175.718ZM132.1,240.869l-.006-.02c-.758.586-1.1,1.954-1.056,3.816h2.287A36.456,36.456,0,0,1,132.1,240.869Zm92.986,20.539c-.231-.557-.46-1.112-.68-1.664H204.076a3.918,3.918,0,0,1-.09,1.664Zm21.5-.81c2.745-1.012,5.427-2.162,8.056-3.416-.165-.4-.326-.793-.488-1.189-.085-.207-.174-.416-.256-.623-3.735,1.83-9.467,4.374-12.471,4.374H226.355c.224.551.458,1.108.694,1.664h14.966c.038,0,.075,0,.113-.005a13.37,13.37,0,0,0,1.411-.093A13.026,13.026,0,0,0,246.579,260.6Zm37.229-25.008c.329-.36.653-.725.977-1.088.192-.214.388-.425.577-.641-10.47-5.6-10.18-18.245-1.989-23.6q-.774-.8-1.563-1.581a12.656,12.656,0,0,0-3.646,2.467,14.28,14.28,0,0,0-4.019,10.771A14.926,14.926,0,0,0,283.808,235.591ZM258.992,194.2q-.613.88-1.222,1.907-.2.338-.4.69c.878.408,1.743.837,2.6,1.279.041-.077.079-.158.12-.232.077-.14.148-.275.221-.412.184-.346.364-.684.559-.989s.356-.588.525-.863c-.269-.159-.533-.326-.8-.482C260.062,194.791,259.525,194.5,258.992,194.2Zm-1.078-.605c-.091-.05-.181-.1-.273-.154-.492-.274-1-.526-1.494-.788l-.022-.011c-.436.612-.855,1.266-1.266,1.941-.181.3-.365.589-.541.9q.966.382,1.92.8c.142-.254.293-.5.44-.746C257.072,194.87,257.481,194.218,257.914,193.6ZM224.3,190.821l-4.507-.057s-.77-2.222-5.088-3.5c-2.372-.007-4.743-.013-7.115-.045l-4.716-.056q.738.685,1.479,1.364.788.724,1.583,1.441c.271.246.54.5.812.74l4.926.06-4.8.059c.068.061.135.124.2.185q1.037.926,2.091,1.826h14.2C223.682,192.128,223.99,191.459,224.3,190.821Zm-48.921-37.806c-1.027-.267-2.262-.592-3.761-.99-.312.089-.392.184-.411.214-.081.132.026.541.111.869.036.138.072.287.106.44l.312.143c.17.079.373.171.6.259s.485.2.781.306c.836.314,1.9.655,3.032.982.453.131.917.259,1.383.382,1.58.422,3.174.784,4.4,1.046,1.309.279,2.2.445,2.2.445s-3.377-.318-6.733-.9c-1.678-.285-3.35-.638-4.6-.983-.312-.079-.6-.177-.86-.251-.176-.051-.322-.1-.456-.146a2.3,2.3,0,0,1-.064.3,74.385,74.385,0,0,0,20.687,3.232l.28,0,.109.127a4.538,4.538,0,0,0,.489-1.247c.048-.166.1-.337.152-.507-.372-.031-.885-.068-1.594-.112-.3-.018-.638-.037-1.017-.058-.674-.036-1.347-.077-2.009-.122-4.094-.281-7.78-.795-8.765-2.317C179.268,154.007,178.045,153.71,175.374,153.015Zm-59.788,49.422,15.492-9.978q.326-.784.649-1.508c-.236-.1-.487-.221-.756-.364l-8.552,6.076,7.32-6.8-.146-.092-4.364,3.749-8.968,7.772C116.039,201.653,115.813,202.04,115.586,202.437Zm-1.745,7.637c-.015.047-.032.086-.046.133-.215.708-.489,1.462-.682,2.288l-.326,1.26-.282,1.329c-.107.449-.188.911-.257,1.38s-.164.941-.216,1.422-.1.966-.155,1.453-.061.979-.094,1.469-.058.981-.062,1.471-.036.978-.012,1.462.027.964.04,1.439q.05.71.1,1.4c.024.462.085.912.128,1.354s.079.877.139,1.3c.121.839.217,1.636.358,2.363.12.7.238,1.345.349,1.92.12.621.234,1.161.332,1.6l.289,1.332-.4-1.3c-.131-.414-.265-.924-.421-1.509-.019-.064-.037-.141-.055-.208-.147-.533-.291-1.119-.425-1.767-.173-.726-.3-1.523-.46-2.365-.129-.844-.281-1.736-.353-2.668l-.119-1.419q-.03-.721-.061-1.458c-.032-.49,0-.986-.009-1.483s.006-1,.044-1.494.056-1,.116-1.491.119-.986.178-1.473.162-.965.239-1.44.166-.942.28-1.4l.315-1.34.383-1.262c.21-.754.482-1.44.716-2.091l-1.558.746a41.87,41.87,0,0,0-.92,21.554,43.829,43.829,0,0,0,1.641,5.623l9.834,3.786c-.113-3.494-3.689-9.014-2.259-15.665a15.241,15.241,0,0,1,.863-2.735s.022.244.077.692a84.665,84.665,0,0,0,4.887,19.082l2.507.965a74.754,74.754,0,0,1-2.647-32.356,78.954,78.954,0,0,1,1.6-8.4l-1.244.6a62.832,62.832,0,0,0-1.445,29.61c-2.3-4.294-2.623-9.848-2.83-14.721-.246-5.786-.332-10.612-3.381-11.224ZM76.327,197.1,63.221,182.847l6.978,6.879,7.527,7.42,25.33.829-23.7.776.952.939h32.761L94.511,181.132H59.663l15.944,15.944Zm-8.3,6.371h38.8c.036-.079.077-.169.11-.246a17.336,17.336,0,0,1,.855-1.652l.039-.069H69.17c-.143.231-.287.474-.43.719l24.332.289-24.668.294C68.279,203.025,68.155,203.242,68.031,203.471Zm-11.6,18.1.952-.064c.07-.331.148-.668.241-1.013a5.473,5.473,0,0,0,.385.971l3.069-.207a44.055,44.055,0,0,1,1.231-8.043C59,214.636,57.089,218.069,56.43,221.567ZM62.5,235.221c-.118-.444-.228-.9-.335-1.36a10.138,10.138,0,0,1-5.121-9.749l-.872-.058c0,.018,0,.036,0,.055C56.1,228.2,57.764,233.3,62.5,235.221Zm51.1,11.06c-.439-.717-.9-1.532-1.371-2.422l-44.506-.144c.155.3.31.59.462.866l34.671.591-34,.58c.106.179.214.363.317.529Zm-35.709,2.3.448-.487h-.521l-.47.47ZM59.663,266.249H94.511L112.664,248.1H79.9l-.543.535,23.7.776-25.33.829-6.907,6.808-7.6,7.49,13.106-14.252-.72.024Zm75.624-6.129a85.014,85.014,0,0,1-4.523-9.4l-1.958-.839a68.678,68.678,0,0,0,4.2,7.391l-15.027-11.5,10.186,6.555s-2.195-2.139-4.692-4.734l-8.27-3.544c.364.672.716,1.278,1.042,1.811l7.734,5.949,11.253,8.269C135.251,260.1,135.27,260.106,135.287,260.12Zm61.891,3.723c-4.8-.867-8.4-4.531-10.14-8.438-.316.4-.754,1.013-1.254,1.753a63.749,63.749,0,0,0-3.456,5.834,12.213,12.213,0,0,0-.743,1.646c-.177.575-.306,1.152-.426,1.721-.237,1.134-.408,2.2-.523,3.126a17.822,17.822,0,0,0-.162,2.237,4.871,4.871,0,0,0,.037.627l.031.221-.044-.219a4.848,4.848,0,0,1-.075-.627,17.864,17.864,0,0,1,.025-2.256c.059-.933.165-2.018.334-3.176.086-.576.183-1.182.33-1.785a12.512,12.512,0,0,1,.67-1.774,64.471,64.471,0,0,1,3.137-6.117c.481-.813.894-1.474,1.223-1.946.159-.241.286-.4.372-.521l.018-.024a11.09,11.09,0,0,1-.383-1.461c-.188.236-.377.472-.559.716-.456.6-.887,1.222-1.314,1.846-.846,1.257-1.631,2.558-2.382,3.879q-.566.989-1.093,2c-.364.668-.691,1.356-1.037,2.034s-.655,1.375-.984,2.061l-.861,1.926a1.474,1.474,0,0,1,0,.479l-.066.554c-.048.367-.106.731-.169,1.095q-.193,1.088-.485,2.15c-.094.354-.2.7-.316,1.052s-.238.692-.374,1.03-.284.672-.448,1-.34.638-.51.958c.112-.343.248-.681.337-1.028s.187-.69.265-1.039.148-.7.209-1.048.111-.7.15-1.056q.122-1.059.149-2.121c.007-.353.01-.706,0-1.058l-.011-.331c-1.6.3-5.47,1.3-6.269,4.068-.733,3.143-.164,5.9.386,8.558.592,2.864,1.2,5.825.058,9.1-2.128,6.078,1.514,12.729,4.924,17.844,1.867,2.8,3.543,3.7,4.38,3.333.791-.34,1.4-2.067.7-5.789a2.131,2.131,0,0,1-.974-.137,3.336,3.336,0,0,1-1.029-.664,9.8,9.8,0,0,1-2.429-5.192,20.525,20.525,0,0,1-.223-5.583c.075-.756.165-1.381.239-1.817l.123-.683s-.026.25-.071.689-.085,1.067-.1,1.82a21.862,21.862,0,0,0,.14,2.842c.971,3.3,2.667,1.466,2.807.018.135-1.4,2.61-10.659,5.008-14.583.369-.946.76-1.908,1.195-2.9C187.93,273.137,194.785,266.174,197.178,263.843Zm21-.619h-2.365c-.884,2.393-2.007,6.045-1.185,7.346,0,0-4.309,2.754-3.868,7.47,0,0-3.263-8.993-4.05-11.046a9.851,9.851,0,0,1-.326-3.77h-.578c-.041.556-.075,1.118-.1,1.682a12.2,12.2,0,0,0,.02,1.805c.082.6.209,1.174.339,1.741.263,1.128.559,2.171.844,3.055a17.843,17.843,0,0,0,.8,2.1,4.806,4.806,0,0,0,.3.553l.121.188-.133-.18a4.916,4.916,0,0,1-.333-.537,17.818,17.818,0,0,1-.928-2.056c-.34-.871-.7-1.9-1.036-3.021-.165-.559-.332-1.149-.453-1.758a12.539,12.539,0,0,1-.14-1.892c-.01-.562-.009-1.123,0-1.677H203.57c-.011.206-.03.411-.04.616-.049.759-.056,1.521-.083,2.282s-.015,1.523-.024,2.284l.031,2.11a1.452,1.452,0,0,1,.2.434l.173.529c.112.353.212.708.308,1.064q.283,1.068.467,2.154c.063.361.112.724.156,1.087s.075.727.095,1.092.026.729.014,1.095c0,.364-.039.722-.059,1.083-.043-.358-.062-.722-.128-1.074-.05-.354-.121-.7-.2-1.054s-.16-.7-.252-1.039-.2-.684-.31-1.021q-.336-1.012-.758-1.985c-.143-.324-.289-.645-.444-.961l-.15-.3c-1.326.947-4.413,3.482-3.97,6.33.661,3.16,2.336,5.416,3.957,7.6,1.744,2.348,3.547,4.775,3.887,8.225.633,6.408,6.738,10.9,11.987,14.105,2.873,1.753,4.77,1.858,5.377,1.176.574-.642.4-2.464-1.81-5.543a2.124,2.124,0,0,1-.941.287,3.335,3.335,0,0,1-1.213-.168,9.8,9.8,0,0,1-4.391-3.684,20.51,20.51,0,0,1-2.556-4.969c-.251-.717-.433-1.322-.548-1.748s-.177-.671-.177-.671l.226.655c.147.415.373,1,.674,1.694a21.791,21.791,0,0,0,1.325,2.518c2.271,2.582,3.036.206,2.553-1.166-.467-1.325-2.126-10.766-1.606-15.335-.064-1.013-.116-2.05-.141-3.137C215.107,273.421,216.791,267.4,218.182,263.224Zm64.3-26.209a16.412,16.412,0,0,1-3.692-2.16c-.281.315-.636.707-1.055,1.156.257.173.509.337.741.5.527.337,1.033.581,1.466.833a10.713,10.713,0,0,0,1.215.576l.309.134C281.8,237.712,282.143,237.365,282.478,237.014Zm7.635-9.061c.824-1.112,1.629-2.24,2.406-3.39a3.323,3.323,0,0,0-.11-3.8c-.483-.636-.982-1.259-1.479-1.883-.186-.234-.367-.473-.555-.706C288.753,219.369,285.069,222.924,290.113,227.953Zm-24.191-30.842-.594.706-.007.008,1.059.805-1.14-.7c-.218.278-.445.593-.693.92-.273.344-.52.744-.8,1.153-.029.041-.056.088-.085.13a101.977,101.977,0,0,1,13.44,9.566c.349-.33.715-.642,1.1-.937-.276-.294-.65-.668-1.1-1.116-.989-.973-2.357-2.233-3.767-3.451s-2.855-2.4-3.951-3.269-1.842-1.432-1.842-1.432,1.122.717,2.666,1.764c1.046.709,2.284,1.568,3.5,2.464,1.512,1.105,2.991,2.261,4.077,3.169.543.46,1,.846,1.294,1.12l.078.07a14.653,14.653,0,0,1,1.272-.743,115.5,115.5,0,0,0-8.91-7.733c-1.538-1.2-3.114-2.351-4.71-3.472l-.326.349-.289.31Zm-5.287-5.033c-.412.47-.833,1-1.256,1.578.5.328,1.005.649,1.5.985.258.176.51.36.767.537l.672-.978.306-.439.233-.3C262.123,192.986,261.379,192.532,260.635,192.078Zm-3.982-.161q.695.42,1.379.855c.1.066.206.137.31.2.4-.539.817-1.049,1.247-1.542-.571-.341-1.153-.665-1.73-1C257.451,190.907,257.048,191.4,256.653,191.917ZM229.321,185.5l4.322.018,8.685.091h.113l.076.022,1.656.49c.548.174,1.088.369,1.632.553s1.072.407,1.608.608,1.058.438,1.585.659c1.051.45,2.087.934,3.1,1.458,1.009.5,2,1.045,2.979,1.6.381-.514.775-1,1.177-1.475q-4.592-2.534-9.4-4.65a13.049,13.049,0,0,0-5.279-1.1H230.488C230.224,184.14,229.822,184.716,229.321,185.5Zm-1.054-1.722H199.255c.132.125.265.25.4.375.217.205.433.413.653.616.3.283.606.564.908.847l6.373-.075c2.9-.04,5.79-.039,8.686-.051s5.79-.026,8.686-.008l2.213.009C227.58,184.82,227.951,184.246,228.267,183.777ZM199.3,158.015c-.176-.637-2.369-1.52-4.4-1.987a2.934,2.934,0,0,0-.746,1.541,4.73,4.73,0,0,1-.842,1.86l.312.365q.536,0,1.074.039c.147.01.294.032.441.046a12.73,12.73,0,0,1,1.691.264c.046.01.091.026.137.037.161.041.321.082.481.131a3.553,3.553,0,0,1,1.248-1.427C199.293,158.426,199.376,158.3,199.3,158.015Zm3.98-9.047-.347.368-.38.474-.265.329a9.188,9.188,0,0,0-.6.838c-.186.29-.4.561-.563.866l-.505.9a8.3,8.3,0,0,0-.46.919l-.43.931c-.138.316-.249.665-.374,1l-.246.676.09.056.1.059C202.775,155.173,203.182,152.784,203.277,148.968Zm18.035-15.862c-.115-.921-.264-1.831-.448-2.706a46.518,46.518,0,0,0-1.252-4.746c-.227-.684-.437-1.312-.639-1.863s-.388-1.029-.546-1.421c-.325-.78-.519-1.226-.519-1.226l.184.3c.115.2.307.472.507.847s.459.823.722,1.355c.219.414.437.893.661,1.4.478-.056.811-2,.688-2.65a2.3,2.3,0,0,0,1.175-1.823c0-.434-.006-.859-.027-1.26-.033-.471-.069-.917-.139-1.324-.047-.411-.154-.775-.219-1.105-.1-.32-.179-.6-.26-.831l-.29-.7.338.684c.1.223.2.5.319.818.088.327.222.691.3,1.1.1.409.166.857.232,1.333s.1.982.131,1.5.042,1.059.055,1.6c4.035-.262,4.866-4.349,5.036-6.085l-.2.015c-.315,1.245-1.387,3.6-2.683,3.991a1.32,1.32,0,0,1-.384.058,1.385,1.385,0,0,1-1.1-.6c-1.446-1.9-2.671-12.245,1.087-16.832-.121-.093-.243-.183-.364-.276a24.479,24.479,0,0,0-2.712,12.026,5.521,5.521,0,0,0-2.875,2.471,9.932,9.932,0,0,1,.605-2.219,17.211,17.211,0,0,1-.4-7.412c1.036-1.084,3.039-4.674,3.011-6.663-.178-.134-.355-.27-.533-.4l-.28-.205c.138,1.742-.783,3.982-2.849,7.052l-.01.059q-.059.413-.116.817c-.025.269-.05.535-.074.8-.062.524-.036,1.028-.072,1.511.009.483.016.939.024,1.36.029.421.062.809.073,1.158s.071.647.089.9c.048.5.058.8.058.8s-.136-.258-.344-.729a7.973,7.973,0,0,1-.341-.866c-.107-.342-.208-.735-.323-1.167l-.05-.3c-.321,2.439-.517,4.913,1.451,6.789l3.016,2.875-3.709-1.9a7.638,7.638,0,0,1-1.963-1.409c.155.68.3,1.366.431,2.053a35.918,35.918,0,0,1,.7,8.741,12.346,12.346,0,0,1-1.547,5.655,6.46,6.46,0,0,1-5.811,3.078h-.279c-.1,0-.2,0-.3,0-5.451-.051-9.415-1.486-12.1-4.388-3.926-4.251-5.285-11.589-4.275-23.092.531-4.9-4.882-8.415-5.867-9.01a19.225,19.225,0,0,0-7.629,2.4l.258.19a66.367,66.367,0,0,1,6.479-2.1,67.687,67.687,0,0,0-6.36,3.048h0l-.208.113-.248-.148-2.1-1.26-.883.764c-.349.388-.722.756-1.054,1.157l-.467.628a4.762,4.762,0,0,0-.438.649,11.706,11.706,0,0,0-.754,1.376,14.66,14.66,0,0,0-.617,1.455c-.187.5-.342,1.008-.5,1.519-.3,1.03-.566,2.089-.864,3.156-.168.535-.312,1.072-.528,1.605a11.54,11.54,0,0,1-.718,1.575l-.479.746c-.17.242-.385.456-.577.684a4.062,4.062,0,0,1-.657.607l-.348.284-.087.07-.074.055-.166.12-.661.479-.612.486a13.467,13.467,0,0,0-1.14,1.065,6.35,6.35,0,0,0-.89,1.187,2.625,2.625,0,0,0-.256.615c-.014.058-.018.112-.027.167l.7.154a6.552,6.552,0,0,1,1.157.365,7.639,7.639,0,0,1,1.117.465l1.072.558,1,.665a9.552,9.552,0,0,1,.922.7l.028.022a10.136,10.136,0,0,1,.9.779c.284.276.582.541.853.828l.789.863c1.373-.363,1.98-2.281,1.725-3.6,1.311.454,1.916,2.975,1.916,2.975a17.486,17.486,0,0,0-.075-3.346c-.068-.2-.142-.394-.215-.578-.288-.3-.569-.6-.855-.907-.308-.327-.615-.655-.91-.994q-.9-1-1.763-2.039l-.162-.2.026-.21c.054-.436.133-.87.2-1.3s.148-.868.232-1.3c.166-.866.352-1.73.594-2.589.075.889.093,1.773.091,2.655,0,.441,0,.882-.02,1.321-.012.356-.021.711-.038,1.066q.878.88,1.72,1.791c.311.325.608.661.905,1s.6.669.891,1.011l.086.1.026.082c.093.284.162.541.233.811s.132.535.186.8c.1.54.185,1.082.231,1.628.012.145.017.291.026.436.042.34.05.557.05.557,1.311-2.168.1-3.731.3-7.16,1.462,4.992,3.58.756.857-6.051-2.34-5.849-.995-7.564-.57-7.932a.755.755,0,0,1,.116-.086,28.156,28.156,0,0,0,.473,6.567,12.2,12.2,0,0,0,.552,1.889c.792,2.017,1.748,2.336,1.748,2.336L180.772,128c.068-.058.137-.113.212-.17.079-1.71.131-3.421.189-5.132s.122-3.434.1-5.153l-1.8-1.53-.005,0-.18-.156-.02-.176L178.651,110l1.066,3.206.66,1.985,1.893,1.609.231.2-.017.282v.007c-.132,1.812-.161,3.626-.2,5.441s-.087,3.628-.1,5.443l0,.231-.308.28h0a3.7,3.7,0,0,0-.4.308c-.142.121-.279.257-.417.391-.269.281-.532.571-.778.883s-.485.631-.715.958c-.151.22-.294.448-.439.674a3.67,3.67,0,0,0,.385,1.855c-2.925,4.387-2.269,5.95.151,5.042s1.815-4.085,1.815-4.085c2.118,3.631-1.916,7.513-3.731,8.371s-2.949,2.912-2.269,5.6c.053.207.109.4.166.594a10.76,10.76,0,0,0,1.346,2.911c.874.224,1.534.391,2.023.512l.017-.135a5.758,5.758,0,0,1,.174-.723,4.008,4.008,0,0,1,.38-.868,3.932,3.932,0,0,1,1.724-1.548,11.035,11.035,0,0,1,2.352-.742,13.243,13.243,0,0,0,2.25-.653,3.337,3.337,0,0,0,1.536-1.236,2.976,2.976,0,0,0,.351-.73,4.574,4.574,0,0,0,.163-.613c.051-.349.073-.552.073-.552s0,.2-.021.542v.017a4.531,4.531,0,0,1-.107.638,3.16,3.16,0,0,1-.3.794,3.628,3.628,0,0,1-1.53,1.484,13.69,13.69,0,0,1-2.256.891,10.451,10.451,0,0,0-2.121.886,2.893,2.893,0,0,0-1.439,1.978,4.89,4.89,0,0,0-.08.532c0,.13-.007.231-.01.318l.119.026.326.069.116.313a1.662,1.662,0,0,0,1,.758,16.263,16.263,0,0,0,3.651.786h0a1.321,1.321,0,0,1,.151-.279,1.534,1.534,0,0,1,.211-.277,2.534,2.534,0,0,1,.613-.5,9.377,9.377,0,0,1,3.451-.782,8.21,8.21,0,0,0,3.19-.784,2.274,2.274,0,0,0,.782-.739,1.68,1.68,0,0,0,.15-.27l.048-.1-.036.1a1.706,1.706,0,0,1-.117.291,2.382,2.382,0,0,1-.72.87,8.523,8.523,0,0,1-3.193,1.225l-.408.1c1.317.623,5.291.514,5.671-.42.416-1.021-1.21-3.743-1.21-3.743l2.156.265c-1.135-1.891-7.715-1.929-7.715-1.929.674-.163,1.287-.342,1.852-.529a19.041,19.041,0,0,0,3-1.263,9.736,9.736,0,0,0,1.579-1.007c3.253,1.74,6.883-.3,6.883-.3s-2.874,2.8-2.837,4.047a2.535,2.535,0,0,0,.794,1.853,20.024,20.024,0,0,0-1.839,4.9c.056.022.113.044.169.067l.191-.549c.123-.337.223-.672.364-1.011l.449-1.018a9.162,9.162,0,0,1,.481-1l.533-.966c.173-.325.4-.618.6-.928a10.39,10.39,0,0,1,.639-.9l.13-.162a7.1,7.1,0,0,1,.405-1.777c.756-1.765,6.5-4.79,7.11-5.9a9.534,9.534,0,0,0,.5-3.63c3.832,0,6-1.312,6.757-3.681-.353,2.925,3.127,2.622,3.53.807.193,2.094-1.767,3.419-3.781,4.48.306-.143.613-.291.916-.447a12.172,12.172,0,0,0,1.6-.95,7.581,7.581,0,0,0,.642-.546,3.5,3.5,0,0,0,.487-.572c.066-.1.135-.186.192-.277l.131-.276.118-.247c.026-.079.039-.156.056-.224.067-.273.114-.437.114-.437s.006.15,0,.418v.038c0,.073,0,.157-.01.245s-.043.18-.067.28-.052.21-.079.324-.1.216-.158.333a3.048,3.048,0,0,1-.452.7,5.251,5.251,0,0,1-.647.661,7.594,7.594,0,0,1-.792.574c-.279.181-.572.342-.868.5a17.553,17.553,0,0,1-1.787.767c-.578.216-1.119.4-1.581.556l-.628.222-.47.193-.264.136a2.149,2.149,0,0,0-.392.412,16.088,16.088,0,0,0,4.372-.761l.007,0a22.347,22.347,0,0,0,2.162-1.3,10.09,10.09,0,0,0,1.986-1.685c.136-.162.246-.333.375-.5a2.019,2.019,0,0,0,.139-.259l.066-.129.034-.065.017-.032.009-.016,0,0c.059-.218.135-.448.175-.651l.078-.6A15.821,15.821,0,0,0,221.312,133.107Zm1.206-3.171a6.7,6.7,0,0,0-.133-2.633,4.779,4.779,0,0,0-.227-.7l-.069-.173c-.05-.118-.052-.142-.081-.218a2.429,2.429,0,0,1-.123-.41,7.374,7.374,0,0,1-.15-1.743c.007-.75.043-1.48.072-2.195a9.794,9.794,0,0,0-.194,3.859c.448,1.519.925,3.475.258,4.611.079.284.151.575.22.868a2.414,2.414,0,0,0,.161-.3A3.871,3.871,0,0,0,222.518,129.935Zm5.1-34.7c.424.2.883.4,1.373.613s1,.45,1.534.675l3.337,1.445,6.272,2.647c.851.369,1.566.672,2.05.913a6.087,6.087,0,0,1,.561.29l.2.112-.155-.163a3.826,3.826,0,0,0-.47-.44A16.357,16.357,0,0,0,240.458,100c-.8-.507-1.751-1.047-2.795-1.584-.525-.26-1.061-.546-1.623-.8l-1.7-.764-1.729-.7c-.568-.235-1.147-.42-1.7-.623-1.107-.386-2.154-.706-3.061-.95s-1.674-.418-2.212-.519-.85-.152-.85-.152.28.145.776.38S226.767,94.864,227.619,95.237Zm-18.8,39.832c.021-.207.057-.462.063-.753a8.394,8.394,0,0,0,0-.984,10.555,10.555,0,0,0-.114-1.165,10.1,10.1,0,0,0-.286-1.283,9.824,9.824,0,0,0-.426-1.23c-.015-.035-.027-.07-.041-.106a11.737,11.737,0,0,0-.676-1.3,9.553,9.553,0,0,0-.878-1.185c-.159-.184-.323-.363-.485-.536s-.356-.314-.528-.467-.342-.305-.521-.435l-.549-.348-.518-.323c-.178-.09-.359-.163-.527-.239a9.53,9.53,0,0,0-.92-.372c-.277-.078-.524-.133-.726-.182-.4-.094-.641-.138-.641-.138s.2.137.548.359c.177.109.39.245.64.386s.481.361.76.551c.136.1.281.2.422.308l.426.373.448.387.427.445c.142.152.3.3.435.46s.261.343.4.512a12.1,12.1,0,0,1,.757,1.08c.223.382.448.765.638,1.16q.136.3.281.59c.093.2.162.4.243.593.163.389.28.782.417,1.15.1.376.228.729.307,1.064.182.666.3,1.238.386,1.641l.062.3.068.338S208.758,135.484,208.814,135.069Zm6.747,95.245s-.067.265-.2.7a5.8,5.8,0,0,1-.312.748,2.39,2.39,0,0,1-.243.421,2.944,2.944,0,0,1-.309.431,5.772,5.772,0,0,1-.843.824,9.378,9.378,0,0,1-1.126.714c-.409.228-.862.416-1.324.621s-.949.387-1.439.576l-1.468.612a12.431,12.431,0,0,0-1.411.733,6.072,6.072,0,0,0-1.209.966,3.617,3.617,0,0,0-.748,1.218,3.145,3.145,0,0,0-.16,1.171,3.708,3.708,0,0,0,.144.868,4.119,4.119,0,0,0,.187.512l.072.178s0-.067-.008-.192-.021-.312-.016-.541a4.9,4.9,0,0,1,.079-.794,3.273,3.273,0,0,1,.333-.922,3.631,3.631,0,0,1,.736-.847,7.441,7.441,0,0,1,1.11-.691c.417-.211.876-.388,1.344-.584l1.459-.563c.491-.2.987-.406,1.473-.635a10.4,10.4,0,0,0,1.392-.772,6.86,6.86,0,0,0,1.184-.958,4.866,4.866,0,0,0,.818-1.112,2.988,2.988,0,0,0,.253-.555,2.8,2.8,0,0,0,.154-.523,4.187,4.187,0,0,0,.114-.862,4.692,4.692,0,0,0-.024-.55Zm-13.307-29.36a3.941,3.941,0,0,0,.627,1.351,6.957,6.957,0,0,0,1.186,1.27A12.638,12.638,0,0,0,205.6,204.7c.551.352,1.12.7,1.71,1.025l1.768.986a21.563,21.563,0,0,1,3.254,2.094,8.012,8.012,0,0,1,1.185,1.231,4.675,4.675,0,0,1,.69,1.339c.035.113.069.224.1.333.018.112.035.223.052.33l.052.318c0,.105.005.207.008.306a6.889,6.889,0,0,1-.051,1.045c-.1.578-.167.921-.167.921l.108-.221c.064-.147.188-.355.293-.641a5.355,5.355,0,0,0,.28-1.074c.017-.108.034-.219.052-.334l.008-.36q0-.186,0-.383c-.02-.129-.039-.263-.06-.4a4.662,4.662,0,0,0-.609-1.671,7.157,7.157,0,0,0-1.231-1.532,12.369,12.369,0,0,0-1.607-1.274c-.574-.384-1.17-.744-1.769-1.082l-1.8-.956c-.586-.317-1.176-.6-1.718-.909s-1.066-.6-1.523-.928a8.3,8.3,0,0,1-1.2-.994,4.747,4.747,0,0,1-.424-.532l-.178-.264c-.048-.09-.085-.181-.128-.269a2.334,2.334,0,0,1-.184-.515,1.768,1.768,0,0,1-.09-.46,3.132,3.132,0,0,1-.024-.685c.005-.161.008-.246.008-.246l-.073.236a2.565,2.565,0,0,0-.15.688,2.031,2.031,0,0,0-.016.521A2.3,2.3,0,0,0,202.255,200.954Zm-47.547-55.614c-.17.192-.261.31-.261.31s.146-.033.39-.109a2.267,2.267,0,0,0,.431-.169,3.807,3.807,0,0,0,.541-.289,6.016,6.016,0,0,0,1.191-.939,7.623,7.623,0,0,0,.574-.634c.175-.231.357-.464.512-.715a7.62,7.62,0,0,0,1.16-3,4.5,4.5,0,0,0,.037-1.075c-.037-.262-.071-.4-.071-.4s-.068.138-.166.364c-.056.113-.128.247-.2.4l-.265.5c-.4.724-.932,1.661-1.516,2.561-.136.232-.3.445-.436.671-.158.211-.292.437-.445.635-.289.414-.578.787-.832,1.113-.128.166-.247.3-.354.436S154.8,145.249,154.708,145.341Zm-19.9,31.3a10.43,10.43,0,0,1-1.162-.007c-.193-.011-.384-.033-.576-.052s-.38-.062-.571-.089l-.035-.005a5.418,5.418,0,0,0-1.547.149,3.12,3.12,0,0,0-.73.28,1.749,1.749,0,0,0-.326.22,1.5,1.5,0,0,0-.261.28,2.924,2.924,0,0,1,1.382-.386,5.98,5.98,0,0,1,.718-.015,6.114,6.114,0,0,1,.7.044,6.49,6.49,0,0,0,1.217.17,6.474,6.474,0,0,0,2.448-.363,4.627,4.627,0,0,0,1.1-.547A13.848,13.848,0,0,1,134.809,176.643Zm9.163.646a15.587,15.587,0,0,1-1.684,2.114c-.337.357-.688.7-1.031,1.015s-.673.593-.959.838l-.708.576-.27.226.33-.123a7.51,7.51,0,0,0,.841-.393c.166-.1.35-.2.535-.317s.384-.245.57-.4a9.651,9.651,0,0,0,1.131-1.008c.171-.195.345-.386.5-.588s.3-.41.437-.607a7.235,7.235,0,0,0,.614-1.175,5.494,5.494,0,0,0,.276-.892l.058-.349-.171.306C144.334,176.707,144.173,176.976,143.972,177.289ZM205.7,110.6c.1.573.216,1.1.329,1.552s.234.821.311,1.08.141.4.141.4-.006-.156-.025-.426-.049-.654-.084-1.115c-.087-.915-.2-2.134-.318-3.354l-.164-1.786c-.044-.571-.086-1.1-.121-1.562s-.066-.841-.066-1.112-.028-.426-.028-.426a10.827,10.827,0,0,0-.252,1.533c-.042.465-.069,1.009-.063,1.591s.043,1.2.093,1.82C205.525,109.41,205.6,110.025,205.7,110.6Zm2.7,16.075c.065-.234.137-.479.2-.735.081-.25.179-.5.259-.767.1-.255.207-.514.32-.769.01-.02.018-.04.029-.06.113-.23.212-.468.344-.683.139-.236.262-.478.413-.692a10.787,10.787,0,0,1,.857-1.155,8.109,8.109,0,0,1,1-1.019,2.614,2.614,0,0,0-.365.17,5.806,5.806,0,0,0-.881.6,6.469,6.469,0,0,0-1.049,1.095,6.214,6.214,0,0,0-.485.709c-.159.247-.277.521-.417.784-.114.274-.218.553-.321.827-.083.28-.153.559-.223.827-.051.273-.089.538-.127.788s-.034.495-.047.715a7.132,7.132,0,0,0,.039,1.054c.022.253.043.4.043.4s.032-.143.074-.394c.005-.029.011-.065.016-.1.038-.243.083-.566.173-.929C208.311,127.13,208.346,126.906,208.407,126.671ZM189.337,88.61a1.168,1.168,0,0,0-.186-.433,1.6,1.6,0,0,0-.325-.342,2.251,2.251,0,0,0-.4-.2,1.76,1.76,0,0,0-.409-.1,1.578,1.578,0,0,0-.735.07.937.937,0,0,0-.269.138s-.007.007-.011.011a.922.922,0,0,0-.157.168,1.25,1.25,0,0,0-.052.177l.15-.108a1.073,1.073,0,0,1,.4-.045,1.781,1.781,0,0,1,.27.034c.094.013.193.053.293.076a2.492,2.492,0,0,1,.293.121,1.586,1.586,0,0,1,.27.157,1.134,1.134,0,0,1,.35.419c.007.085.063.164.052.256a.988.988,0,0,1-.006.264,2.266,2.266,0,0,1-.09.436c-.028.111-.041.181-.041.181s.054-.039.143-.117a1.23,1.23,0,0,0,.318-.39.859.859,0,0,0,.119-.308c0-.01.005-.018.007-.028A1.088,1.088,0,0,0,189.337,88.61Zm-2.612,1.24s.738.718,1.04.037-1.475-.927-1.626.076A.5.5,0,0,1,186.725,89.85Zm-.389,2.889a1.462,1.462,0,0,0,.156.218,1.063,1.063,0,0,0,.1-.25,1.28,1.28,0,0,0,.013-.537,1.16,1.16,0,0,0-.227-.5.587.587,0,0,0-.217-.173s-.01.121-.028.258a2.016,2.016,0,0,0,.026.5A1.684,1.684,0,0,0,186.336,92.74Zm-.1,2.464a1.637,1.637,0,0,0,.242.217c.081.068.18.111.213.216,0-.108-.1-.2-.158-.274a1.5,1.5,0,0,1-.182-.243,1.21,1.21,0,0,1-.152-.553,2.423,2.423,0,0,1,.057-.583c.034-.155.086-.307.135-.459.215-.029.429-.056.642-.09l.129-.021.052-.076.4-.584a5.553,5.553,0,0,1,.88-.015,4.4,4.4,0,0,1,.486.055,3.714,3.714,0,0,1,.46.111l.046.016h.018c.684.006,1.374.026,2.069.087a7.939,7.939,0,0,0-1.011-.285,9.709,9.709,0,0,0-1-.151,2.674,2.674,0,0,0-.5-.167,4.893,4.893,0,0,0-.529-.094,5.506,5.506,0,0,0-1.067,0l-.107.01-.059.09-.4.614c-.233.042-.466.087-.7.132l-.121.024-.029.11a2.955,2.955,0,0,0-.1,1.309A1.248,1.248,0,0,0,186.233,95.2Zm2.039-.2c.3-.1.6-.228.91-.359a9.17,9.17,0,0,0,1.605-.9,2.938,2.938,0,0,0,.465-.41.487.487,0,0,0,.111-.183l.09-.088c-.662-.095-1.948-.133-1.948-.133l-1.758.019-.322,1.04-.927.114a1.321,1.321,0,0,0,.246,1.153,3.981,3.981,0,0,1,1.564-.716l-.187.087a4.281,4.281,0,0,0-.765.411,2.493,2.493,0,0,0-.6.6l.2-.116a4.919,4.919,0,0,1,.529-.26C187.7,95.169,187.967,95.106,188.272,95Zm1.389,1.7a3.083,3.083,0,0,0,.484-.417,2.979,2.979,0,0,0,.385-.474,3.233,3.233,0,0,0,.285-.487,2.713,2.713,0,0,0,.2-.46,4.111,4.111,0,0,0,.2-.714c.037-.174.052-.274.052-.274s-.054.089-.135.245l-.145.281c-.05.11-.136.22-.207.35a4.372,4.372,0,0,1-.254.4,5.021,5.021,0,0,1-.312.418,3.823,3.823,0,0,1-.8.756,2.243,2.243,0,0,1-.479.261,2.309,2.309,0,0,1-.5.142,1.858,1.858,0,0,1-.479-.014,1.21,1.21,0,0,1-.4-.151,1.524,1.524,0,0,1-.3-.231,2.709,2.709,0,0,1-.168-.247c-.067-.163-.112-.256-.112-.256s.006.1.028.278a2.6,2.6,0,0,0,.113.319,1.28,1.28,0,0,0,.282.346,1.266,1.266,0,0,0,.467.268,1.8,1.8,0,0,0,.6.086,2.261,2.261,0,0,0,.624-.131A2.683,2.683,0,0,0,189.661,96.7Zm14.006-18.783a.465.465,0,0,1,.357.165,1.782,1.782,0,0,1,.376,1.061,3.752,3.752,0,0,1,0,.683,4.645,4.645,0,0,1-.1.709c-.091.468-.233.986-.289,1.469a12.38,12.38,0,0,0-.11,1.313c-.021.376-.028.69-.181.8a.5.5,0,0,1-.22.092l-.091.017.092.016a.5.5,0,0,0,.278-.02.6.6,0,0,0,.3-.339,3.142,3.142,0,0,0,.162-.52l.291-1.265c.1-.459.242-.922.359-1.451a5.175,5.175,0,0,0,.088-.8,3.329,3.329,0,0,0-.058-.785,2.485,2.485,0,0,0-.232-.715,1.39,1.39,0,0,0-.454-.541.7.7,0,0,0-.606-.123.728.728,0,0,0-.379.241.872.872,0,0,0-.151.219l-.046.081.071-.06a1.061,1.061,0,0,1,.207-.151A.629.629,0,0,1,203.667,77.921Zm1.205-4.478a46.694,46.694,0,0,0,3.731-3.832c.605-.908.051-1.512-1.412-2.37a28.61,28.61,0,0,1-8.774,7.715S200.888,74,202.7,73.09C202.7,73.09,205.074,71.527,204.872,73.443ZM183.34,58.705a4.481,4.481,0,0,0-.68.266C182.893,58.876,183.119,58.789,183.34,58.705ZM173.7,85.142c-.946,1.248-2,2.42-2,2.42,3.593-1.286,9.076-3.971,9.076-3.971C174.794,85.747,173.7,85.142,173.7,85.142Zm34.824,8.8-.12-.331s.018.127.063.346a6,6,0,0,0,.3.883c.3.713.795,1.61,1.287,2.5s.974,1.783,1.3,2.473c.154.348.3.632.382.84l.144.321a10.823,10.823,0,0,0-.369-1.227c-.139-.359-.3-.779-.505-1.214s-.44-.891-.685-1.34c-.493-.9-1.042-1.755-1.4-2.426A8.8,8.8,0,0,1,208.522,93.944Zm4.217,3.071.277.848c.232.7.533,1.625.78,2.562.133.466.23.939.322,1.383.037.223.073.439.107.643s.044.4.064.582a6.812,6.812,0,0,1,.022.879c-.01.216-.009.341-.009.341s.039-.119.1-.327a4.932,4.932,0,0,0,.151-.894,7.427,7.427,0,0,0-.036-1.283c-.037-.231-.056-.475-.111-.714s-.1-.486-.166-.726a12.888,12.888,0,0,0-.457-1.387,12.472,12.472,0,0,0-.521-1.159,11.737,11.737,0,0,0-.619-1.073S212.67,96.81,212.738,97.014ZM195.9,87.159c3.782,0,5.547-3.227,2.471-5.5C199.123,83.326,195.9,87.159,195.9,87.159Zm2.42,7.261c-2.471,1.614-5.8,5.194-6.959,5.6,2.975-.5,6.1-3.429,7.362-4.488s2.975-2.471,3.479-4.135a11.889,11.889,0,0,0,.3-3.832c-.555-.706-1.412-1.816-1.412-1.816C201.191,88.369,200.788,92.806,198.317,94.42ZM203.46,127.2s2.319,6.253-.908,7.412a18.285,18.285,0,0,0,5,1.3l.139.013s.758-2.981-2.026-6.5A14.619,14.619,0,0,0,203.46,127.2Zm-7.567-7.782a10.274,10.274,0,0,1,.684-1.6c-1.74-4.841.681-9.909-1.059-11.421s-3.933-3.026-3.933-3.026c2.8,3.253,3.1,3.857,2.345,8.4a40.345,40.345,0,0,0-.118,9.244c.323,3.548,1.045,6.955,2.236,8.606A15.274,15.274,0,0,1,195.893,119.414ZM185.231,95.277a4.533,4.533,0,0,1-.655-2.4c-1.74-.757-1.966-3.555-1.966-3.555C182.282,91.7,183.82,94.041,185.231,95.277Zm3.656,1.172a8.614,8.614,0,0,0,2.118-2.294c-.794.479-1.311.529-1.437.719s-.719,1.362-1.172,1.462a1.81,1.81,0,0,1-1.084-.315A1.119,1.119,0,0,0,188.887,96.449Zm-2.049-5.71-.624-.491a2.407,2.407,0,0,1-1.456-.851,7.843,7.843,0,0,0,1.664,1.626Zm-1.632,27.733c-2.168,3.883-3.177,7.261-.5,10.135-1.462-5.042,4.589-5.546,4.488-3.429,2.471-3.429-1.412-4.74-1.261-8.27s1.664-3.983,1.664-3.983c-1.916-2.774-6.959-1.765-6.959-1.765C185.055,111.161,187.374,114.589,185.207,118.472ZM196.5,138.39c-1.009,1.815-3.58,3.328-5.7,1.664,2.874,4.488,13.161,4.488,17.5-2.067C208.3,137.987,200.686,140.76,196.5,138.39Zm-15.682,7.463c-1.361,2.622-4.185,2.218-3.277-.2-1.563,1.664-1.16,2.824-.756,4.538s1.815,2.42,2.067,1.664,1.16-3.025,2.723-3.025,6-1.614,5.849-3.026C184.1,147.719,181.626,146.76,180.819,145.853Zm-18.732,2.067c-1.135,1.74-.529,3.782-1.21,5.295s-5.32,6.051-11.169,14.573c0,0-.4,2.118-.706,3.177l2.5-2.358,6.619-9s3.479-6.2,4.311-7.526,1.248-3.593,2.08-4.273,3.252-3.315,3.807-3.971,2.521-4.488,5.8-9.328l-1.714-2.673s-4.337,9.2-5.169,10.866S163.221,146.18,162.087,147.92Zm-19.4,23.923c.457-1.1.915-2.2,1.347-3.312.346-.88.677-1.766,1.012-2.65,2.141-4.664,5.169-11,5.169-11-.983-1.362,2.382-6.089,3.328-6.391-.529-1.664,1.664-4.2,1.664-4.2-1.74.567-4.878,6.619-4.878,6.619a48.31,48.31,0,0,0-3.253,7l-3.781,9.985-1.816,4.614-1.777,2.8a6.91,6.91,0,0,1,1.591,1.672l.073.105c-.113-1.021,1.324-3.479,1.324-3.479a2.476,2.476,0,0,1-.072-.479A5.438,5.438,0,0,1,142.684,171.843Zm17.008-31.435c2.673-3.227,4.69-10.035,5.4-11.648s2.32-.706,2.471-.655c-.454-1.11-2.32-2.068-2.32-2.068a46.653,46.653,0,0,0-5.849,11.648A6.827,6.827,0,0,1,159.692,140.407ZM232.707,110.1l-7.362-5.849a8.35,8.35,0,0,0-1.462,3.832A17.952,17.952,0,0,0,232.707,110.1Zm-75.99,75.41c6.429,8.32,17.094,8.32,23.75,12.48A150.725,150.725,0,0,1,194.384,208.2c-8.169-13.691-10.816-17.548-14.447-17.094S164.053,189.974,156.717,185.512ZM187.8,173.183s1.189-.078,2.813-.1c1.129-.013,2.465,0,3.768.1a29.69,29.69,0,0,0-4.4-1,95.434,95.434,0,0,0-12.155-1.155c-2.1-.082-4.413-.127-6.968-.115a6.2,6.2,0,0,1-3.933,3.4,80.571,80.571,0,0,1,10-1.179A81.431,81.431,0,0,1,187.8,173.183Zm4.588,6.76c-1.16-.5-4.351-1.629-10.664-2.322a6.424,6.424,0,0,1-4.235,3.41c3.171-.52,9.878-1.431,15.1-.871.108.012.22.02.327.033C192.921,180.192,192.751,180.1,192.391,179.942Zm-14.9,1.088c-1.132.186-1.816.322-1.816.322A9.017,9.017,0,0,0,177.492,181.03Zm9.4,76.261c-1.815,1.74-4.387,5.824-4.538,8.018s-.984,11.724-.984,11.724c1.588-4.463,6.656-5.143,6.656-5.143-.3-2.345,5.9-7.791,5.9-7.791C189.921,262.056,186.9,257.291,186.9,257.291Zm-9.959,17.8a19.319,19.319,0,0,1-1.361,3.631c-.717,1.59-2.107,1.923-3.089.889l-.34-1.44c-.15-.724-.28-1.409-.382-2.046-.082-.638-.157-1.225-.184-1.749-.047-.525-.025-.977-.043-1.359.034-.766.054-1.2.054-1.2l-.079.305c-.047.2-.136.489-.212.864-.048.379-.158.85-.181,1.388-.016.269-.043.557-.052.86s.005.622.007.955c.02.332.04.678.061,1.036s.081.723.123,1.1c.1.751.225,1.542.384,2.345s.3,1.63.445,2.457a11.406,11.406,0,0,1,.168,2.45c-.025.193-.02.4-.062.581s-.075.36-.13.563q-.187.63-.374,1.253a21.972,21.972,0,0,0-.559,2.514,14.2,14.2,0,0,0-.2,2.416,13.117,13.117,0,0,0,.574,3.939,12.155,12.155,0,0,0,.476,1.312c.139.359.3.622.38.809l.14.282-.078-.305c-.048-.2-.133-.487-.213-.86s-.176-.821-.254-1.34-.138-1.1-.171-1.742c0-.08,0-.167,0-.249a16.549,16.549,0,0,0,.87,3.741s1.412,0,3.832,2.622c-1.261-3.378-1.765-6.4-.756-12S179.76,279.78,176.936,275.091Zm48.912-49.945c2.637-4.36-.623-8.374-3.568-11.989-.265-.478-.535-.963-.807-1.447-.571-.992-1.148-1.982-1.724-2.89s-1.15-1.734-1.652-2.434a17.061,17.061,0,0,0-1.854-2.191l.262.372c-2.786-3.888-6.519-8.074-8.809-9.713-.766-.718-1.657-1.53-2.561-2.334-1.242-1.1-2.5-2.179-3.46-2.975l-1.167-.955-.019-.015c-1.111-1.119-1.869-1.928-1.869-1.928a2.98,2.98,0,0,1-1.593.733,11.682,11.682,0,0,1-3.021.1c4.992,2.118,4.916,8.169,6.731,10.211a3.373,3.373,0,0,1,2.842-1.446c3.946-.113,9.224,4.447,5.827,6.179a4.532,4.532,0,0,1-.878.335c6.58,1.966,10.74,8.622,11.875,12.48s-.378,6.127-.378,6.127a6.741,6.741,0,0,1,1.939-.987C224.989,219.442,227.413,221.515,225.849,225.145Zm-21.556,25.338s1.966-5.219,12.707-16.111c0,0-7.929,7.927-12.564,8.893-.047.01-.1.024-.142.032a16.426,16.426,0,0,1,.415,2.606A12,12,0,0,1,204.292,250.484ZM185.5,106.711c.442-.121,4.468-1,5.707,6.618.453-3.782-.051-9.278-4.841-11.4l-4.74,2.521s4.424-.452,3.834,2.259v.01ZM210.368,134a5.336,5.336,0,0,0-1.311-2.269c.857,1.362.453,3.933.453,3.933,4.894-.082,5.4-5.506,5.309-8.4-.022-.685-.077-1.23-.116-1.529-.15.741-.3,1.41-.453,2.029C212.319,135.643,210.368,134,210.368,134ZM205.8,117.514a8.739,8.739,0,0,1-2.269,6.127,9.261,9.261,0,0,1,3.479,2.194,10.089,10.089,0,0,1,2.194-4.009A13.621,13.621,0,0,1,205.8,117.514Zm7.034-27.456c-3.933-2.723-4.236-5.219-4.236-5.219C208.6,87.638,210.041,89.377,212.839,90.058ZM238.1,104.5c-6.581-3.479-17.547-7.942-17.547-7.942l-3.253-.6,3.1,1.588s12.1,9.455,14.446,10.74,4.841,1.362,7.715-.529C235.228,107.455,234.093,103.37,238.1,104.5ZM172,113.279s2.016-6.959,4.79-8.169l1.866.1s-1.059-.6-2.219-1.21C175.273,104.757,173,108.64,172,113.279Z" transform="translate(-45.928 -54.782)" fill="url('#linear-gradient')"></path>
</svg>
